<?xml version="1.0" encoding="utf-8"?>
<!-- Generator: Adobe Illustrator 19.0.0, SVG Export Plug-In . SVG Version: 6.00 Build 0)  -->
<svg version="1.1" xmlns="http://www.w3.org/2000/svg" xmlns:xlink="http://www.w3.org/1999/xlink" x="0px" y="0px"
	 viewBox="0 0 1122 1122" style="enable-background:new 0 0 1122 1122;" xml:space="preserve">
<style type="text/css">
	.st0{display:none;}
	.st1{display:inline;fill:#F4E9D7;}
	.st2{fill:#16D3C1;}
	.st3{fill:#DB6AAD;}
	.st4{fill:#5D5D5D;}
</style>
<g id="bg" class="st0">
	<rect class="st1" width="1122" height="1122"/>
</g>
<g id="color">
	<g>
		<g>
			<path class="st2" d="M591.9,598.7l-4.9-2.1l-1.1,3.8l-4-0.8l-1.7,4.4c0,0-3.7-1.9-5.6,1c-1.9,2.9-1.6,7.3-1.6,7.3l-3,12.1
				l-3.7-1.2l6-23.1c0,0-3.2-11.3-9.8-12.6c0,0-7.1,0.9-7.6,1c-0.5,0.1-5.1,1.3-5.5,1.6c-0.4,0.3-2.9,3.8-2.9,3.8
				s-5.1,33.7-4.7,37.9c0,0-14.9,31.6-3.3,62.7c0,0-37.3,24.4-41,35.3c0,0-31.4,17-36.4,24.3c0,0-82.6-11-86.3,32
				c-1.5,17.6,16.3,36.5,65,30c0,0,28.1-4,40.9-17c0,0,29.7-13.8,37.5-19c7.7-5.3,26.3-15,26.7-33.8c0,0,23.6-11.8,27.7-26.1
				c0,0,15.6,0.7,22.5-14.1c7-14.8,9.7-47.4,2.2-62.8c0,0,5.6-30,2.3-40l-3.8-4.6L591.9,598.7z M450.6,778.7
				c2.6,2.1,1.8,7.7-2.7,8.1c-3.3,0.3-7.3,1.8-11.1,2c-0.9,0-1.7-0.2-2.3-0.6c-2.3,0.8-4.5,1.6-6.8,2c-5.4,0.9-11.6,1.9-17,1.5
				c-5.7-0.4-5.9-9.4-0.2-8.9c5.9,0.4,13-0.5,18.6-2c5.8-1.5,11.3-4.3,17.4-4.7C448.7,776,450.1,777.2,450.6,778.7z M502.9,751.4
				c2.1,1.6,2.3,4.3,5.1,5.2c4.3,1.5,4.4,7,0.2,8.6c-4.9,1.9-9.3,6.1-14.6,6.8c-2.6,0.4-4.7-0.6-6.6-2.5c-0.8-0.8-1.5-1.7-2.1-2.7
				c-0.4-0.6-0.8-2.3-1.4-2.6c-4.4-2.6-1.5-8.9,2.6-8.4c1.6-1.1,3.5-1.7,5.2-2.7c1.7-1,3.5-2.1,5.4-2.7
				C498.8,749.9,501.1,750,502.9,751.4z M549.3,717.9c-1.3,4.6-6.4,8.6-10.1,11.1c-4.6,3.1-10.2,1.9-14.7-0.8
				c-3.4-2-0.5-7.3,2.9-5.5c3.9-3.9,9.3-7.4,14.3-9.8c1.8-0.9,4.1-1.6,5.9-0.5C549.5,713.5,549.9,715.9,549.3,717.9z M558.5,699.5
				c0,0.1-0.1,3.9-0.1,3.9s-0.5-0.4-1.7-2.1c-1.2-1.7-1.6-4.5-1.6-4.5C556.9,697.1,558.5,699.5,558.5,699.5z M580.3,677.6
				c-1.7,4.2-2.2,8.7-3.9,13c-0.8,2.2-3.4,3.3-5.2,1.5c-2.2-2.1-3.6-4.6-6-6.5c-2.2-1.7-4.7-3-7.3-4.2c-0.5,0.3-1,0.7-1.6,1
				c-3.7,1.6-5.4-4.5-1.7-6c0.8-0.6,1.1-1.4,1-2.4c0.3-2.8,3.1-4.1,5.3-2.3c1.9,1.5,4,2.1,6.2,2.2c1.3-0.2,2.6-0.3,3.8-0.1
				c2.3-0.2,4.5-0.6,6.6-0.9C580.1,672.7,581.1,675.7,580.3,677.6z"/>
		</g>
		<polygon class="st2" points="504.4,506.6 540.7,554.4 512.1,501.6 		"/>
		<path class="st2" d="M532.4,586.3l0.5,3.9c0,0,8.1,0,9.4-1.7l-0.4-2.8l-4.1-0.1c0,0,0.4,1.6-0.3,1.4
			C536.9,586.7,532.4,586.3,532.4,586.3z"/>
		<path class="st3" d="M543,569.4c0,0,2.7,2.7,3.5,1.8c0.8-0.9-0.8-2.5-0.8-2.5L543,569.4z"/>
		<path class="st3" d="M541.5,565.5c0,0,2.6,1.4,3.6,1.4C546.2,567,544.2,564.1,541.5,565.5z"/>
		<path class="st3" d="M551.7,573c-0.3,1.3,3.6,3.6,5.3,4c1.7,0.3,6.5,0.2,7.3-0.5c0.8-0.7,0.9-1.4,0.9-1.4l-9.2-4.9
			C556,570.1,552.7,569.1,551.7,573z"/>
		<path class="st3" d="M579,587.8c-0.1,0.8,2.3,1.2,2.4-0.2C581.4,586.2,579.3,585.5,579,587.8z"/>
		<path class="st2" d="M601.4,595c0,0-0.7-1.5-0.4-3.6c0.3-2,2.3-6.1,5.3-5.5s2.8,2.2,2.8,2.2L601.4,595z"/>
		<path class="st3" d="M607.3,604.9c0.2-0.1,7.3-1,7.3-1l-2.1-7.3l-3.5,0.9L607.3,604.9z"/>
		<path class="st3" d="M607.1,608.2c0,0,0.3,2.6,1.1,2.8c0.8,0.2,1.5,0.3,2-0.7C610.7,609.3,609.6,608,607.1,608.2z"/>
		<path class="st3" d="M627.4,604.7c0.9,0.3,17,3.2,17.9,3.6c0.8,0.4,24.5,8.2,24.5,8.2s3.2,0.8,3.9-0.9c0.8-1.7,0.8-3-1.4-3.8
			C670.1,610.9,627.4,604.7,627.4,604.7z"/>
		<path class="st2" d="M613.8,574.7l3.7,2.2c0,0,8.6-4.6,8.4-6.1c-0.3-1.5-4.1-4.8-5.5-4C618.9,567.7,613.8,574.7,613.8,574.7z"/>
		<path class="st3" d="M690.8,319.4c-13.6,15-30.1,36.5-33.7,48c0,0-29.6,24.7-35.2,33c0,0-32.3,20.7-55.4,51.7
			c0,0-11.5,7.2-11.1,15.9c0.4,8.8,0.7,36.7,2.5,39.5c0,0-2.6,22.1-2.3,24.5c0.3,2.3,0.2,14.5-0.1,15.5c-0.4,1-2.6,13.2-2.6,13.2
			s0.9,1.4,1.9,3.2c1,1.8,1.5,3.6,3.4,4.3c2,0.7,5.4,0.6,7.2,0.7c1.9,0.1,3.7-0.3,5.7-0.4c2-0.1,3.5-1.2,4.6-1.9
			c1.1-0.7,1.2-2.6,1.6-3.6c0.4-1,1.8-20.8,1.8-20.8l0.1-11.6l3.8,2.5c0,0,0.6,17.2,0.6,18c0,0.8-0.1,13.3,0.3,15.1s0.6,5.2,1.7,5.9
			c1.1,0.7,2.4,2.5,3.9,3.1c1.5,0.5,3.3,1.7,4.3,1c1.1-0.7,3.5-1.2,4.8-2.4c1.3-1.2,2.4-1.3,3.7-1.7c1.2-0.4,2.4-0.5,2.9-2
			c0.5-1.5,0.8-3.6,0.6-5.3c-0.2-1.7-3.7-39.2-3.7-39.2s10.4-9.3,8.8-25.4c-1.6-16.1-4.5-27.8-4.5-27.8s7.9-3.5,13.9-10.5
			c5.9-7,12.1-14.7,12.1-14.7s12.3-0.2,18.5-4.3c6.2-4.1,25.9-19.7,35.6-35c0,0,17.1-6.5,30.6-22.7c13.4-16.2,39.2-50.7,25.5-69.6
			C728.9,296.7,704.3,304.4,690.8,319.4z M595.7,489.1c-0.1,0.1-0.1,0.3-0.1,0.4c0.1,0.2,0.3,0.3,0.4,0.5c0,0.1,0.1,0.2,0.1,0.3
			c0,0.1,0.1,0.2,0.2,0.4c0.1,0.5,0.2,1.1,0.3,1.6c0.2,1.2-0.2,2.2-0.9,2.8c0.3,1.3,0.6,2.5,0.6,3.5c0.2,2.6-3.6,4.4-5.3,2.3
			c-2.6-3.2-6.6-4.2-10.5-3.1c-1.6,0.4-3.5-0.5-3.9-2.1c-0.8-3-1.5-6.1-2.5-9c-1.4-3.8,4.6-5.5,6-1.7c0.1,0.2,0.1,0.4,0.2,0.5
			c3.8,1,7.9,1.7,11.3-0.6C593.9,483.1,597.2,486.5,595.7,489.1z M614.5,442.8c-2.5,6.3-6.9,12.2-13.1,15.3
			c-3.6,1.8-6.8-3.6-3.2-5.4c4.6-2.3,8.4-6.6,10.2-11.4C609.9,437.6,616,439.1,614.5,442.8z M660.6,393.9c0,0.5,0,0.9,0,1.4
			c0.3,0.4,0.6,0.9,0.9,1.4c0,0,0,0.1,0,0.1c1.5,0.7,2.5,2.4,1.4,4.1c-1.6,2.5-3.7,4.3-5.6,6.5c-0.4,0.4-0.7,0.9-1.1,1.4
			c-0.6,0.9-1.1,1.8-1.7,2.5c-2.4,3.3-4.9,6.4-7.9,9.3c-2.2,2.1-6,0.1-5.3-3c0.5-2.1-0.6-5-2-6.7c-1.9-2.4,0.2-5.5,2.4-5.5
			c0.4-0.4,0.8-0.8,1.5-1c2.6-0.7,4.2-3.7,5.7-5.7c1.7-2.3,4.1-4,5.7-6.4C656.5,389.8,660.3,390.7,660.6,393.9z M712.8,345.6
			c-2.2,5.5-7.2,11.9-11.2,16.3c-2,2.2-4.5,4.5-7.5,5c-4.2,0.7-5.9-2.8-9.3-4.4c-3.2-1.5-1.2-5.9,1.7-5.8c0.1-0.3,0.3-0.7,0.5-1
			c1.8-1.8,3.6-3.5,5.4-5.3c2-2.5,4.2-4.9,6.6-7.2c0.1-0.1,0.2-0.2,0.3-0.4c1.8-2.2,3.7-5,6.4-6.2
			C711.7,334.1,714.7,340.8,712.8,345.6z"/>
	</g>
	<g>
		<path class="st3" d="M587.7,537.9c0.7,3.7,1.4,7.5,2.1,11.2c1.1,5.7,9.8,3.3,8.8-2.4c-0.7-3.7-1.4-7.5-2.1-11.2
			C595.3,529.8,586.6,532.2,587.7,537.9L587.7,537.9z"/>
	</g>
	<g>
		<path class="st3" d="M556,556.2c-0.2,0.1-0.4,0.3-0.6,0.4c-3.4,1.7-2.5,6,0,7.8c3.5,2.6,7.9,5.3,12.5,4.8c4.2-0.5,7.2-4,7-8.2
			c-2.8,0.8-5.6,1.5-8.5,2.3c0.2,0.2,0.3,0.4,0.5,0.7c-0.2-1.2-0.3-2.3-0.5-3.5c0.1-0.2,0.3-0.5,0.4-0.7c-3,2.3-0.6,8.2,3.2,7.7
			c1.8-0.2,3.1-0.5,4.7-1.3c-1.8-2.4-3.7-4.8-5.5-7.1c-0.5,0.5-1.1,1-1.6,1.4c-3.3,2.9-0.3,7.3,3.2,7.7c2.5,0.3,5-1.6,5.4-4.1
			c0.3-2-0.2-4-2.1-5.1c-0.2-0.1-0.4-0.3-0.6-0.4c-1.3-0.8-3.3-0.9-4.6,0c-0.2,0.1-0.4,0.3-0.6,0.4c-4.8,3.2-0.3,11.1,4.6,7.8
			c0.2-0.1,0.4-0.3,0.6-0.4c-1.5,0-3.1,0-4.6,0c0.2,0.1,0.4,0.3,0.6,0.4c-0.7-1.7-1.4-3.4-2.1-5.1c0,0.2-0.1,0.3-0.1,0.5
			c0.7-0.9,1.4-1.8,2.1-2.7c0.5-0.1,0.9-0.2,1.4-0.3c1.1,2.6,2.1,5.2,3.2,7.7c0.5-0.5,1.1-1,1.6-1.4c4.1-3.6-1.1-9.3-5.5-7.1
			c0,0-0.1,0.1-0.1,0.1c1.1,2.6,2.1,5.2,3.2,7.7c2.3-1.8,2.7-5.1,1-7.5c-2.4-3.4-8.6-2.5-8.5,2.3c1.1-0.5,1.1-0.8,0.2-0.9
			c-0.8-0.2-1.5-0.5-2.1-0.9c-1.4-0.7-2.7-1.7-4-2.6c0,2.6,0,5.2,0,7.8c1.7-0.9,2.8-2,3.9-3.6C567,555.8,559.1,551.3,556,556.2
			L556,556.2z"/>
	</g>
	<path class="st2" d="M473.8,562.5c-7.4-2.3-8.1,2-8.1,2l49.4,14.9C515.2,579.5,481.2,564.8,473.8,562.5z"/>
	<path class="st2" d="M478.8,625.1c0,0,1.7,7.3,7.2,4.7c5.5-2.6,39-22.3,39-22.3L478.8,625.1z"/>
	<polygon class="st3" points="616.5,623 648.6,658.1 653.8,653 	"/>
	<path class="st3" d="M661.1,562.6l-33,15c0,0-1.1,5.1-0.8,5.2c0.3,0.1,52.5-22.9,52.5-22.9S677,552,661.1,562.6z"/>
	<g>
		<path class="st3" d="M598.9,526.4c1.5-2.3,3.1-4.6,4.6-6.9c-2.8-0.8-5.6-1.5-8.5-2.3c-0.2,0.7-0.4,1.3-0.6,2
			c-1.6,3.5,1.1,7.8,5.1,6.7c3.6-1,5.7-3.3,7.1-6.7c-2.9-0.8-5.8-1.6-8.8-2.4c0,0.8-0.4,1.4-1.2,1.7c2.1,2.1,4.3,4.3,6.4,6.4
			c3.1-3.6,4.7-7.3,5.2-12c0.6-5.8-8.4-5.7-9.1,0c-0.2,2.2-1.1,4-2.5,5.6c-3.9,4.5,1.9,10.1,6.4,6.4c1.9-1.5,3-3.4,3.5-5.8
			c1.4-5.8-6.6-7.7-8.8-2.4c-0.3,0.1-0.5,0.2-0.8,0.3c1.7,2.2,3.4,4.4,5.1,6.7c1.1-2.2,1.6-4.1,1.8-6.6c0.4-4.8-6.2-5.7-8.5-2.3
			c-1.5,2.3-3.1,4.6-4.6,6.9C587.8,526.7,595.6,531.3,598.9,526.4L598.9,526.4z"/>
	</g>
	<g>
		<path class="st3" d="M579.4,509.8c0.6-0.4,1.3-0.7,2-0.8c-0.8-2.9-1.6-5.8-2.4-8.8c-0.8,0.5-1.6,0.5-2.3-0.1
			c0.7,2.5,1.3,5.1,2,7.6c0.3-0.2,0.5-0.4,0.8-0.5c-0.8-2.8-1.5-5.6-2.3-8.5c0.2,0,0.5,0,0.7,0c0,2.6,0,5.2,0,7.8c0.5,0,1,0,1.6,0.1
			c-0.4-2.8-0.7-5.5-1.1-8.3c0.6,0,1.2,0,1.8,0c0.5,2.1,1.1,4.1,1.6,6.2c0.1-0.2,0.2-0.3,0.3-0.5c-1.3,0.7-2.6,1.5-3.9,2.2
			c0.2,0,0.4,0,0.6,0c-1.1-2.6-2.1-5.2-3.2-7.7c-1.7,2-4.8,2.1-6.7,4.2c-1.9,2.1-2.5,4.7-1.7,7.4c1.6,5.6,10.4,3.2,8.8-2.4
			c0.6,2,5.2-1.8,6-2.8c2.6-3,0.9-7.5-3.2-7.7c-2.2-0.1-3.7,0.9-4.8,2.7c-1.2,1.9-0.5,5.3,1.6,6.2c2.8,1.2,4.6,1.2,7.3,0
			c3.9-1.7,2.2-7.1-1.1-8.3c-3.1-1.1-5.7-0.7-8.6,0.9c-2.9,1.6-3,6.3,0,7.8c2.9,1.5,5.5,1.5,8.4,0c4-2,2.1-8.8-2.3-8.5
			c-2.9,0.2-5.1,1-7.2,3.2c-2.5,2.6-1.2,6.4,2,7.6c2.4,0.9,4.7,0.9,7.2,0.1c5.5-1.8,3.3-10.2-2.4-8.8c-1.5,0.4-2.8,0.9-4.2,1.7
			C569.8,504.9,574.3,512.7,579.4,509.8L579.4,509.8z"/>
	</g>
	<g>
		<path class="st3" d="M584.7,530.3c0,6.9,0,13.9,0,20.8c0,5.8,9,5.8,9.1,0c0.1-6.1-0.1-12.1-1.9-18c-1.6-5.1-8.5-3.8-8.9,1.2
			c-0.5,6.4-0.4,12.8,0.4,19.1c0.7,5.6,9.2,6,9.1,0c-0.1-5.1,0-10.2,0.4-15.3c0.4-5.9-8.5-5.7-9.1,0c-0.6,5.6-0.3,11.1,0.6,16.6
			c1,5.7,9.7,3.3,8.8-2.4c-0.8-4.7-0.8-9.4-0.3-14.2c-3,0-6.1,0-9.1,0c-0.4,5.1-0.5,10.2-0.4,15.3c3,0,6.1,0,9.1,0
			c-0.8-6.4-1-12.7-0.4-19.1c-3,0.4-5.9,0.8-8.9,1.2c1.6,5.1,1.6,10.3,1.5,15.6c3,0,6.1,0,9.1,0c0-6.9,0-13.9,0-20.8
			C593.8,524.4,584.7,524.4,584.7,530.3L584.7,530.3z"/>
	</g>
</g>
<g id="line">
	<g>
		<g>
			<path class="st4" d="M391.9,808c-0.4-0.1-0.6,0.5-0.2,0.6c6.5,1.6,13,3.2,19.5,4.5c0.6,0.1,1-0.8,0.3-1
				C405.1,810.5,398.5,809.2,391.9,808z"/>
			<path class="st4" d="M406,808.4c-2.7-0.2-5.4-0.4-8.1-0.6c-0.4,0-0.6,0.6-0.2,0.6c2.7,0.2,5.4,0.5,8.1,0.7
				C406.3,809.2,406.5,808.4,406,808.4z"/>
			<path class="st4" d="M407.1,806.5c-2.3-0.1-4.6-0.1-6.8-0.2c-0.4,0-0.5,0.6,0,0.6c2.3,0.1,4.6,0.2,6.8,0.2
				C407.5,807.2,407.6,806.5,407.1,806.5z"/>
			<path class="st4" d="M406,804.2c-1.4-0.1-2.7-0.1-4.1-0.1c-0.4,0-0.5,0.6,0,0.6c1.4,0.1,2.7,0.2,4.1,0.2
				C406.5,805,406.6,804.3,406,804.2z"/>
			<path class="st4" d="M408.7,812.2c-5.7-0.4-11.4-0.7-17.1-0.9c-0.4,0-0.5,0.6-0.1,0.6c5.7,0.5,11.4,0.9,17.1,1.3
				C409.3,813.2,409.4,812.2,408.7,812.2z"/>
			<path class="st4" d="M412.7,814.9c-6.2,0.7-12.2,0.1-18.2-1.6c-0.5-0.2-0.8,0.7-0.3,0.8c6,2,12.1,2.5,18.4,1.7
				C413.2,815.7,413.4,814.8,412.7,814.9z"/>
			<path class="st4" d="M401.2,790.1c-2.3-0.2-4.5-0.4-6.8-0.5c-0.4,0-0.5,0.6-0.1,0.7c2.2,0.2,4.4,0.5,6.7,0.6
				C401.5,790.9,401.8,790.1,401.2,790.1z"/>
			<path class="st4" d="M400.5,788.3c-2.1-0.2-4.3-0.3-6.4-0.4c-0.4,0-0.5,0.6-0.1,0.7c2.1,0.2,4.2,0.5,6.4,0.5
				C400.8,789.1,401,788.4,400.5,788.3z"/>
			<path class="st4" d="M400.8,786.1c-2.1-0.3-4.3-0.2-6.4-0.4c-0.3,0-0.5,0.6-0.1,0.6c2.1,0.2,4.2,0.5,6.4,0.6
				C401.1,786.9,401.3,786.2,400.8,786.1z"/>
			<path class="st4" d="M403.1,784.7c-2.6-0.1-5.2,0-7.8,0c-0.4,0-0.5,0.6,0,0.6c2.6,0.1,5.2,0.2,7.8,0.2
				C403.6,785.5,403.6,784.8,403.1,784.7z"/>
			<path class="st4" d="M403.8,782.5c-2.5-0.1-4.9,0-7.4,0c-0.4,0-0.5,0.6,0,0.6c2.5,0.1,4.9,0.2,7.4,0.2
				C404.3,783.3,404.4,782.6,403.8,782.5z"/>
			<path class="st4" d="M404.6,780.7c-1.6-0.1-3.3-0.3-4.9-0.4c-0.4,0-0.7,0.6-0.2,0.6c1.6,0.1,3.3,0.3,4.9,0.4
				C404.8,781.4,405.1,780.7,404.6,780.7z"/>
			<path class="st4" d="M409.6,779.6c-3.6-0.3-7.3-0.4-10.9-0.6c-0.3,0-0.5,0.6-0.1,0.6c3.6,0.3,7.2,0.7,10.9,0.9
				C409.9,780.5,410.2,779.7,409.6,779.6z"/>
			<path class="st4" d="M418.1,779.3c-5.9-0.8-11.8-1.3-17.8-1.8c-0.4,0-0.6,0.6-0.2,0.6c5.9,0.7,11.8,1.4,17.7,1.9
				C418.3,780,418.6,779.3,418.1,779.3z"/>
			<path class="st4" d="M431,777.9c-9-0.8-17.9-1.4-26.9-2c-0.4,0-0.6,0.5-0.2,0.6c9,0.7,18,1.6,27,2.2
				C431.3,778.7,431.5,777.9,431,777.9z"/>
			<path class="st4" d="M384.2,779.1c-2.4,6.7-0.1,14.2,5.5,18.4c0.1,0.1,0.4-0.1,0.2-0.2c-5.5-4.3-7.6-11.6-5.3-18.1
				C384.8,778.9,384.3,778.9,384.2,779.1z"/>
			<path class="st4" d="M427.2,806.2c1,4.8,4,8.8,8.2,11.2c0.2,0.1,0.3-0.2,0.2-0.3c-4.1-2.5-6.8-6.4-7.8-11.1
				C427.6,805.7,427.1,805.9,427.2,806.2z"/>
			<path class="st4" d="M428.4,788.5c-1.4,3.2-1.6,7.1-1.1,10.6c0,0.2,0.4,0.1,0.4-0.1c-0.2-3.7,0.5-6.8,1.5-10.3
				C429.3,788.1,428.6,788.1,428.4,788.5z"/>
			<g>
				<g>
					<path class="st4" d="M543,745.7c0.2,0.9,0.3,1.9,0.4,2.9c0.6,10.2-6.8,17.1-14.4,22.5c-14.3,10.2-29.8,18.5-45.6,26.1
						c-0.4,0.2-0.2,0.8,0.2,0.6c11.4-4.6,22.3-10.3,32.8-16.6c8.6-5.2,18.8-10.6,24.7-18.9c4-5.6,5-12,3.7-17.8
						C544.2,745,543.6,745.3,543,745.7z"/>
					<path class="st4" d="M469.7,764.6c-0.1,0.2-0.2,0.4-0.3,0.6c-0.5,0.8-1.1,1.6-1.6,2.5c7.9-4.5,15.7-9.4,23.5-14.1
						c8.5-5.1,17.1-11.4,27.5-10.1c0.7,0.1,0.8-0.9,0.2-1.1c-8.7-2.5-16.8,2.6-24.1,6.8c-7.2,4.1-14.5,8.1-21.6,12.3
						C472,762.4,470.8,763.4,469.7,764.6z"/>
					<path class="st4" d="M467.2,767.5c-2.2,3-2.4,8.8,1.3,10.8c0.7,0.4,1.1-0.7,0.8-1.2c-1.3-2.7-2.2-5.3-0.5-8.1
						C469.6,767.8,468.2,766.2,467.2,767.5z"/>
					<path class="st4" d="M451.9,766.2c-1.7,5.9-1,13.9,3.8,18.2c0.3,0.2,0.6-0.1,0.5-0.4c-1.9-5.7-4-11-2.1-17.1
						c1.8-5.9,6.1-10.1,11.5-12.8c0.9-0.5,0.5-2.1-0.6-1.7C458.7,754.6,453.7,759.7,451.9,766.2z"/>
					<path class="st4" d="M503,747.2c-1.7,4,0,8.1,3.5,10.5c5.5,3.8,12.8,1.1,18.4-1.2c17.3-7.2,35-18.4,47.1-33
						c0.6-0.8-0.4-2.3-1.2-1.4c-9.9,9.2-19.4,17.9-31.2,24.8c-5.3,3-10.8,5.9-16.4,8.1c-6.5,2.5-21.3,4.7-19-7.4
						C504.1,746.9,503.3,746.6,503,747.2z"/>
					<path class="st4" d="M552.7,712.2c-9.4,15.6-24,26.8-41.3,32.4c-0.4,0.1-0.3,1,0.2,0.9c17.7-5.3,32.4-16.6,42.3-32.2
						C554.3,712.4,553.2,711.3,552.7,712.2z"/>
					<path class="st4" d="M536.5,680.2c-0.2-0.4-0.4-0.8-0.4-1.3c-0.3-3.1-0.6-6.4-0.8-9.6c-1.4,8.1-1.1,16.6,1.2,24.4
						c-12.1,11.3-37.9,19-40.2,37.8c0.7-0.2,1.4-0.4,2.1-0.6c5-17.4,26.3-23,39-34.6c1.5,4.4,3.8,8.6,6.6,12.2
						c-8.7,4.2-17.5,10.7-22.8,18.8c-0.2,0.4,0.1,1,0.6,0.7c7.8-6.6,15-12.4,24.2-17.1l0,0c1.5,1.7,3.2,3.3,5.1,4.7
						c0.4,0.3,0.8-0.2,0.5-0.6c-7.5-9.7-13.5-19-14.8-31.5C536.6,682.4,536.5,681.3,536.5,680.2z"/>
					<path class="st4" d="M600.4,661.7c0.2,21.8-1,48.5-25.4,56.9c-0.4,0.1-0.2,0.8,0.2,0.7c24.6-5.3,27.8-34.5,27.8-55.5
						c0.3-0.3,0.4-0.7,0.3-1.1l-0.3-1.5C602.7,659.4,600.4,659.9,600.4,661.7z"/>
					<path class="st4" d="M580.8,670.7c0.6,4.9,0.7,9.5-0.8,14.2c-1.4,4.5-4.1,8-6.7,11.8c-0.2,0.2,0,0.8,0.4,0.6
						c8.3-5.3,11.8-18.1,9.5-27.4C582.8,668.4,580.6,669.3,580.8,670.7z"/>
					<path class="st4" d="M552.3,673.2c-4,10-2,22.6,5.3,30.6c0.4,0.5,1-0.3,0.7-0.8c-5.6-9.3-7-18.3-3.8-28.7
						C555.1,672.7,553,671.5,552.3,673.2z"/>
					<path class="st4" d="M551.4,684.5c7.4,0.3,14,2,19,7.9c5.3,6.4,6.5,15.7,3.1,23.3c-0.2,0.4,0.4,0.7,0.6,0.3
						c3.9-7.8,4.5-16.6-0.4-24.1c-4.6-7.1-13.7-11.6-22.2-10.2C550.1,681.9,549.9,684.5,551.4,684.5z"/>
					<path class="st4" d="M472.3,743c-1.1,0.8-0.2,3.2,1.2,2.5c10.7-5.7,20.4-12.6,32.4-15.4c10.2-2.3,19.8-1.2,29.4,2.8
						c0.4,0.2,0.8-0.5,0.4-0.8C517,717,488.7,731.3,472.3,743z"/>
					<path class="st4" d="M552.4,695.3c2.4,1.1,4.7,2.3,5.4,5.1c0.7,2.6-0.3,5-1.8,7.1c-0.3,0.4,0.1,1.2,0.6,0.9
						c6.1-3.9,4.2-15.1-3.5-15.5C551.8,692.8,551.2,694.7,552.4,695.3z"/>
					<path class="st4" d="M598.4,602.2c-0.8,11.1-2.2,22.2-4.3,33.2c-2.2,11.5-4,25.4-14.4,32.5c-0.3,0.2-0.1,0.8,0.3,0.6
						c9.4-4.6,12.1-15.5,14.4-25c3.1-12.3,5.1-24.8,6.2-37.4c0.4-0.2,0.7-0.7,0.6-1.2c-0.1-0.9-0.2-1.9-0.3-2.8
						C600.8,600.6,598.6,600.5,598.4,602.2z"/>
					<path class="st4" d="M573.3,608.8c-4.9,5.5-4.3,15.8-5.2,22.6c-1.3,10.2-2.8,20.4-3.3,30.6c0,0.9,1,1.1,1.2,0.2
						c2-8.8,3.1-17.8,4.4-26.7c1.2-8.1,1.1-17.9,5-25.3C576.2,608.9,574.4,607.6,573.3,608.8z"/>
					<path class="st4" d="M575.9,608.8c0.7,1.1,1.8,2,2.7,2.9c0.9,0.9,1.9,2,3.1,2.5c0.8,0.4,1.5-0.8,1-1.5c-0.7-1-1.8-1.8-2.8-2.5
						c-1.1-0.8-2.3-1.7-3.5-2.3C576,607.8,575.6,608.4,575.9,608.8z"/>
					<path class="st4" d="M582.2,615.3c-0.2,0.2,0.1,0.7,0.4,0.5c1.4-1.2,2.9-2.3,4-3.7c0.4-0.5-0.2-1.3-0.7-0.9
						C584.5,612.4,583.4,613.9,582.2,615.3z"/>
					<path class="st4" d="M587.9,611.5c1,1.5,2.2,3.1,3.5,4.3c0.9,0.8,1.8-0.8,1.1-1.5c-1.2-1.3-2.7-2.4-4.2-3.3
						C588,610.7,587.8,611.2,587.9,611.5z"/>
					<path class="st4" d="M593.9,606.7c0.7,2.4,1.2,4.9,2.1,7.2c-0.5,0.1-0.9,0.1-1.5,0.1c-0.4,0-0.4,0.7,0.1,0.7
						c0.8,0,1.3,0.1,2.1,0.2c0.4,0.1,0.7-0.4,0.6-0.7c-0.2-2.4-0.8-4.9-1.3-7.3c1.1-0.3,2.1-0.7,3.1-1.1c0.9-0.4,0.7-2.3-0.4-2
						c-1.4,0.3-2.8,0.9-4.2,1.4C593.9,605.4,593.7,606.2,593.9,606.7z"/>
					<path class="st4" d="M585.7,597.2c0.2,1.1,0.7,2.2,1.2,3.2c0.4,0.9,0.6,1.9,1.3,2.6c0.2,0.2,0.5,0,0.5-0.2c0.1-1-0.3-2-0.5-3
						c-0.3-1.1-0.5-2.3-1-3.3C586.7,595.8,585.6,596.5,585.7,597.2z"/>
					<path class="st4" d="M580.6,599.7c-0.2,1.1-0.5,2.1-0.7,3.2c-3.3-1.1-7.4,2.2-7.1,5.6c0,0.5,0.7,0.4,0.8,0
						c0.8-3.2,3.8-4.2,6.7-3.4c1,0.3,1.2-1.3,0.5-1.8c0.3-0.8,0.7-1.7,1-2.5c1.4,0.4,2.8,0.6,4.1,0.8c1,0.2,1.1-1.4,0.2-1.6
						c-1.5-0.4-3.1-0.8-4.7-1.1C581,598.8,580.7,599.2,580.6,599.7z"/>
					<path class="st4" d="M595.3,598.9c1.4,1.4,2.8,2.8,4.2,4.2c0.3,0.3,0.7-0.3,0.4-0.6c-1.4-1.5-2.7-3-4-4.5
						C595.5,597.4,594.8,598.4,595.3,598.9z"/>
					<path class="st4" d="M554.2,666.3c0,0.4,0.6,0.6,0.6,0.1c1.3-9.3,2.7-19.3,10.7-25.4c1.2-0.9-0.1-3-1.3-2
						C555.9,645.8,554.7,656.3,554.2,666.3z"/>
					<path class="st4" d="M543.5,630.2c-7.5,8.6-8.4,20.6-8.7,31.4c0,0.6,0.7,0.7,0.8,0.1c0.9-9.3,1.6-19.1,7-27.1
						c5.5-8.2,14.9-11.4,24.4-9.3c1.5,0.3,1.9-2.3,0.4-2.6C558.6,620.7,549.4,623.4,543.5,630.2z"/>
					<path class="st4" d="M555,667.8c7,9.7,22.4,7.8,28.4-1.8c0.2-0.3-0.1-0.8-0.4-0.5c-3.9,3.9-8.7,6.6-14.4,6.3
						c-4.9-0.3-8.3-2.8-11.9-5.9C555.6,665.1,554.3,666.8,555,667.8z"/>
					<path class="st4" d="M545.7,594.7c-2.9,12.1-4.6,24.8-3.6,37.2c0,0.4,0.6,0.4,0.6,0c0.4-12.6,1.5-24.8,4.6-37
						C547.7,593.8,546,593.6,545.7,594.7z"/>
					<path class="st4" d="M547.3,596.1c2.7,5.1,7,12.6,14,10.7c0.7-0.2,0.6-1.3-0.1-1.2c-6.7,0.6-10.5-4.5-13.5-9.8
						C547.5,595.4,547.1,595.8,547.3,596.1z"/>
					<path class="st4" d="M565.9,601.8c-0.3,0.9-0.6,2.1-0.3,3.1c-0.2,0.1-0.4,0.1-0.6,0.2c-0.5,0.2-0.3,1.1,0.2,1
						c0.4-0.1,0.8-0.1,1.2-0.2c0.3,0,0.5-0.4,0.5-0.7c0-0.5,0-1,0-1.4c0.6,0.4,1.3,0.5,1.9,0.2c0.8-0.4,0.6-1.7-0.3-1.6
						c-0.5,0-0.9,0-1.1-0.5C567,601.2,566.1,601.1,565.9,601.8z"/>
					<path class="st4" d="M553.3,588.3c-0.3,0.6,0.5,1.6,1.1,1c0.7-0.7,1.5-0.4,2.4-0.2c0.6,0.1,1.2,0.1,1.8-0.1
						c0.9-0.3,1.5-0.8,2-1.6c0.1,0.3,0.2,0.5,0.5,0.6c2.4,0.8,4.6,1.3,6.6,3.1c2,1.8,6.2,7.1,2.1,9.3c-0.3,0.2-0.3,0.9,0.2,0.8
						c3.5-1.1,3.4-4.9,2-7.8c-1.9-3.9-6.1-7.2-10.5-7.2c-0.2,0-0.3,0.1-0.4,0.2c-0.2-0.4-0.7-0.5-0.9-0.1c-1.1,1.7-2.4,1.1-4,0.9
						C554.8,586.9,553.8,587.3,553.3,588.3z"/>
					<path class="st4" d="M548.2,591.4c-0.5,0.4-0.1,1.5,0.6,1.2c1.3-0.7,2.4-1.5,3.6-2.3c0.6-0.4,0.1-1.6-0.6-1.2
						C550.5,589.8,549.3,590.5,548.2,591.4z"/>
					<path class="st4" d="M571.3,593.8c-2.3,3-4.5,6-6.7,9c-0.2,0.3,0.2,0.8,0.5,0.4c2.2-3,4.5-6,6.7-9
						C572,593.9,571.6,593.4,571.3,593.8z"/>
					<path class="st4" d="M569.1,593.5c-2.8,4-5.6,8-8.4,12.1c-0.2,0.3,0.2,0.7,0.4,0.4c2.8-4,5.6-8,8.4-12.1
						C569.8,593.6,569.4,593.1,569.1,593.5z"/>
					<path class="st4" d="M567.5,592c-3.6,4.8-7,9.6-10.4,14.5c-0.2,0.3,0.2,0.7,0.4,0.4c3.5-4.8,7.1-9.5,10.6-14.3
						C568.4,592.1,567.8,591.6,567.5,592z"/>
					<path class="st4" d="M565.7,589.5c-3.7,4.9-6.9,10.1-10.3,15.1c-0.2,0.3,0.2,0.7,0.4,0.4c3.5-5,7.2-9.8,10.5-15
						C566.6,589.6,566.1,589,565.7,589.5z"/>
					<path class="st4" d="M564.2,587.5c-3.8,4.7-7.3,9.6-11,14.5c-0.3,0.3,0.2,0.8,0.5,0.4c3.7-4.8,7.5-9.5,11.1-14.4
						C565.1,587.7,564.6,587.1,564.2,587.5z"/>
					<path class="st4" d="M560.1,587.3c-3,4.1-5.9,8.4-8.8,12.6c-0.2,0.4,0.2,0.9,0.5,0.5c3-4.2,6-8.3,8.8-12.6
						C561,587.5,560.4,586.9,560.1,587.3z"/>
					<path class="st4" d="M555.6,588.8c-2.2,3-4.3,6.1-6.4,9.1c-0.3,0.4,0.2,0.9,0.6,0.5c2.2-3,4.4-6,6.4-9.1
						C556.6,588.9,556,588.3,555.6,588.8z"/>
					<path class="st4" d="M595.1,609c-1.1,2-2.2,4-3.3,6c-0.2,0.3,0.3,0.7,0.5,0.3c1.1-2,2.3-4,3.3-6
						C595.8,609.1,595.3,608.7,595.1,609z"/>
					<path class="st4" d="M596.2,603.3c-2.2,3-4.1,6.2-6.2,9.4c-0.2,0.3,0.2,0.8,0.5,0.4c2.1-3.1,4.3-6.1,6.3-9.3
						C597.1,603.4,596.6,602.8,596.2,603.3z"/>
					<path class="st4" d="M595.4,600.7c-2.7,3.6-5.1,7.6-7.5,11.4c-0.2,0.4,0.2,0.8,0.5,0.4c2.6-3.7,5.4-7.3,7.7-11.2
						C596.5,600.9,595.9,600.2,595.4,600.7z"/>
					<path class="st4" d="M593,599.5c-3.4,4.2-6.4,8.7-9.5,13.1c-0.3,0.4,0.2,0.9,0.5,0.5c3.3-4.2,6.7-8.5,9.6-13
						C594,599.7,593.4,599,593,599.5z"/>
					<path class="st4" d="M589.6,598.5c-2.7,4.4-5.4,8.6-8.6,12.7c-0.3,0.3,0.2,0.8,0.5,0.5c3.3-3.9,6.5-8,8.9-12.6
						C590.7,598.5,589.9,597.9,589.6,598.5z"/>
					<path class="st4" d="M582.6,603.1c-1.4,2-2.9,4.2-4,6.4c-0.2,0.4,0.3,0.7,0.6,0.4c1.6-1.8,3-4,4.2-6.1
						C583.8,603.2,583.1,602.4,582.6,603.1z"/>
					<path class="st4" d="M577.6,605.1c-0.7,0.9-1.4,1.9-2.1,2.8c-0.2,0.3,0.2,0.8,0.5,0.4c0.7-0.9,1.5-1.8,2.2-2.7
						C578.5,605.2,578,604.7,577.6,605.1z"/>
					<path class="st4" d="M593.9,642.8c3.8,4.2,5.6,8.7,5.7,14.4c0,0.7,1,0.7,1.1,0c0.9-5.9-1.1-12.2-5.3-16.5
						C594.3,639.4,592.9,641.7,593.9,642.8z"/>
					<path class="st4" d="M612.6,597.2c0.4,2.2,1.1,4.3,1.7,6.5c-1.9,0.2-3.7,0.5-5.6,0.8c-0.3,0-0.3,0.6,0,0.5
						c2-0.1,4.1-0.3,6.1-0.5c0.3,0,0.4-0.4,0.3-0.6c-0.6-2.3-1.1-4.7-2-6.8C613.1,596.6,612.6,596.8,612.6,597.2z"/>
					<path class="st4" d="M608.9,596.8c-0.3,0.9-0.5,1.9-0.7,2.9c-0.2,1-0.5,2.1-0.7,3.1c0,0.2,0.2,0.3,0.3,0.1
						c0.4-0.9,0.6-1.9,0.8-2.8c0.2-0.8,0.4-1.6,0.6-2.4c1.1-0.1,2.3-0.5,3.3-0.8c0.4-0.1,0.2-0.8-0.2-0.7c-1,0.2-2.1,0.6-3,1
						c0-0.1,0-0.1,0-0.2C609.5,596.6,609,596.5,608.9,596.8z"/>
					<path class="st4" d="M602.8,586.4c-1.4,1.3-2.1,3.2-2.3,5.1c-0.1,0.6-0.4,2.3-0.1,2.8c0.1,0.2,0.4,0.4,0.7,0.6
						c-0.1,0-0.1,0.1-0.2,0.1c-0.3,0.3,0,0.9,0.4,0.6c0.2-0.1,0.3-0.3,0.5-0.4c0.1,0.1,0.2,0.1,0.3,0.2c0.2,0.1,0.3-0.2,0.2-0.3
						c-0.1-0.1-0.1-0.1-0.2-0.1c1.2-1,2.3-1.9,3.5-2.9c0,0,0,0,0,0c-0.3,0.4,0.2,0.8,0.5,0.5c0.8-0.9,1.5-1.9,2.3-2.8
						c0.3-0.4-0.2-1-0.6-0.7c-2.1,1.8-4.2,3.6-6.3,5.4c-0.4-0.5-0.5-1-0.4-1.9c0.2-1.3,0.4-2.6,1.1-3.8c1.5-2.5,5.3-3.4,6.2,0.1
						c0.2,0.7,1.1,0.4,1.2-0.2C609.9,584.9,605.2,584.2,602.8,586.4z"/>
					<path class="st4" d="M578.6,586.8c-0.3,0.9,0,1.9,0.9,2.2c0.7,0.3,1.6,0,2-0.7c0.2,0,0.3-0.1,0.4-0.3c0.3-0.9-0.2-1.9-1-2.3
						C580,585.4,579,585.9,578.6,586.8z M581,587.8c0,0.1,0,0.2,0,0.2c-0.7,0.6-2.2,0.2-1.7-0.9C579.9,586.2,581.2,586.9,581,587.8z
						"/>
					<path class="st4" d="M571.9,598c-1.3,4-2.3,8.1-3.4,12.1c-1.1,4.2-2.9,8.8-3.2,13.2c0,0.2,0.2,0.3,0.4,0.1
						c2.1-3.8,2.9-8.7,4.1-12.9c1.2-4,2.5-8,3.4-12.1C573.4,597.5,572.2,597.1,571.9,598z"/>
					<path class="st4" d="M477.8,760.4c-0.1,0.4-0.1,0.9-0.2,1.3c-0.1,0.7,0.9,1.1,1.2,0.4c0-0.1,0.1-0.2,0.1-0.3
						c2.3,1.6,3.8,3.9,5.1,6.4c0.1,0.3,0.6,0.2,0.5-0.2c-0.5-3.5-2.7-6.4-5.6-8.3C478.3,759.5,477.9,760,477.8,760.4z"/>
					<path class="st4" d="M459.5,751.9c-13.3-1.4-27,0.6-40,3.3c-0.4,0.1-0.4,0.8,0.1,0.7c13.3-2.4,26.2-1.9,39.6-1.2
						c0.2,0,0.3,0,0.5-0.1c-1.4,1.7-2.8,3.5-4.1,5.4c-0.2,0.3,0.2,0.8,0.5,0.4c5.6-7.1,12.5-12.5,20.1-17.2c0.9-0.6,0.5-2.5-0.6-1.9
						c-5.9,3.1-10.7,7.3-14.9,12.2C460.7,752.8,460.4,752,459.5,751.9z"/>
					<path class="st4" d="M472.2,757c-0.1,0-0.1,0-0.2,0.1c-0.2,0.2-0.4,0.4-0.5,0.5c-1.8,1.6-3.6,3.2-5.4,4.8
						c-0.3,0.3,0,0.9,0.4,0.6c2.6-2.1,5.2-4.3,7.7-6.5c0.4-0.3,0-1-0.4-0.7C473.2,756.2,472.7,756.6,472.2,757z"/>
					<path class="st4" d="M469,756.3c-2,2-3.9,4.2-5.8,6.2c-0.3,0.3,0,0.9,0.4,0.6c2-2,4.2-4,6.1-6.1
						C469.9,756.6,469.4,755.9,469,756.3z"/>
					<path class="st4" d="M462.8,760.1c-0.3,0.3,0,0.9,0.4,0.6c1.2-1,2.5-2.1,3.7-3.2c0.4-0.3,0-1-0.4-0.7
						C465.1,758,464,759.1,462.8,760.1z"/>
					<path class="st4" d="M483.1,766.8c15,18.6-7.8,35.9-23.5,42.3c-16.7,6.8-34.5,8.7-52.3,7.1c-0.4,0-0.6,0.7-0.1,0.8
						c21.3,3.4,44.8-0.2,63.7-10.9c13.9-7.9,26.7-26.4,13.9-41.1C483.8,763.8,482.2,765.7,483.1,766.8z"/>
					<path class="st4" d="M396.2,793.7c18.1,0.8,36.5-1.7,53.9-6.6c5.7-1.6,15.3-3,18.7-8.5c1.9-3,1.5-6.8-1.7-8.5
						c-0.4-0.2-0.6,0.4-0.3,0.6c8.6,8-12.5,12.9-16.8,14.1c-5.4,1.5-11,2.8-16.5,3.8c-12.2,2.2-24.5,2.9-36.9,2.9
						C395.3,791.6,395,793.7,396.2,793.7z"/>
					<path class="st4" d="M379.6,797.7c0.2,0.4,0.7-0.1,0.5-0.4C379.9,796.9,379.4,797.4,379.6,797.7z"/>
					<path class="st4" d="M381.2,798.1c0.2,0.3,0.6-0.1,0.4-0.4C381.5,797.4,381.1,797.8,381.2,798.1z"/>
					<path class="st4" d="M408.4,782.3c14.5-1.3,29-3.1,43.4-5c1.2-0.2,1.1-2.2-0.2-2.1c-14.5,1.9-28.9,3.9-43.3,6.3
						C407.9,781.7,408,782.4,408.4,782.3z"/>
					<path class="st4" d="M375,778.7c-4.1,13.7,3,28.4,16.4,33.8c0.4,0.2,0.6-0.5,0.2-0.6c-13.2-5.5-18.8-21.2-13.8-33.9
						c5.3-13.6,19.3-19,33.1-18.2c1.4,0.1,1.7-2.4,0.3-2.5C395.4,755.5,379.8,762.8,375,778.7z"/>
					<path class="st4" d="M402.8,785.3c-0.6,1.4-0.6,3,0,4.4c0.6,1.5,1.5,2.3,2.9,2.7c0.4,0.1,0.5-0.5,0.3-0.7
						c-1.3-1.4-2.3-3.5-1.5-5.4c0.9-2,3.5-2.6,5.4-1.9c1.2,0.5,1.8-1.4,0.8-1.9C407.8,781.1,404.1,782.4,402.8,785.3z"/>
				</g>
				<g>
					<path class="st4" d="M572.7,554.6c0.6,1.2,0.9,2.5,1,3.9c2.1-0.7,4.8,2.1,3.5,4.9c-2.3,5.1-9.8,5.2-14.2,3.4
						c-0.4-0.2-0.2-0.7,0.2-0.6c2.3,0.8,4.8,0.9,7.1,0.4c1.1-0.3,2-0.6,3-1.2c0.5-0.3,1-0.6,1.4-0.9c2.1-1.6,1.9-2.8-0.9-3.7
						c-0.4,0.9-1.8,0.5-1.8-0.4c0-1.9-0.5-3.6-0.8-5.4C571,554.1,572.4,553.8,572.7,554.6z"/>
					<path class="st4" d="M571,554c0.3,0.2,0.1,0.6-0.3,0.5c-6.4-1.8-12.4-0.7-16.6,4.7c-0.4,0.6-1.5-0.1-1-0.7
						C556.9,553.2,565.1,550.5,571,554z"/>
					<path class="st4" d="M556.3,559.1c-0.8,3.3,1.3,7.3,4.8,7.9c0.4,0.1,0.4,0.7,0,0.6c-4.1-0.8-7-4.7-5.7-8.9
						C555.4,558.2,556.4,558.5,556.3,559.1z"/>
					<path class="st4" d="M577.3,561.8c0.3-0.1,0.7,0.3,0.3,0.5c-3.5,1.6-7.1,3.4-10.7,4.8c-0.5,0.2-1-0.5-0.5-0.8
						C570,564.6,573.7,563.3,577.3,561.8z"/>
					<path class="st4" d="M576.3,561.1c0.3-0.1,0.7,0.4,0.3,0.5c-4.6,1.9-9.3,3.8-14,5.5c-0.5,0.2-0.9-0.5-0.4-0.7
						C566.8,564.5,571.5,562.8,576.3,561.1z"/>
					<path class="st4" d="M574.5,560.2c0.4-0.1,0.7,0.4,0.3,0.6c-5.7,2.1-11.4,4.3-17.2,6.2c-0.5,0.2-1-0.5-0.4-0.8
						C562.9,564,568.7,562.2,574.5,560.2z"/>
					<path class="st4" d="M558.3,563.1c5.3-1.9,10.5-3.8,15.8-5.6c0.3-0.1,0.7,0.4,0.3,0.5c-6,2.3-12,4.7-18,7
						c-0.5,0.2-1.2-0.5-0.7-0.9c0.6-0.4,1.2-0.8,1.8-1.1C557.7,562.7,558.1,562.9,558.3,563.1z"/>
					<path class="st4" d="M572.1,556.3c0.4-0.1,0.7,0.4,0.3,0.6c-6.1,2.2-12.2,4.6-18.4,6.3c-0.5,0.1-1.1-0.6-0.5-0.8
						C559.5,559.9,565.9,558.2,572.1,556.3z"/>
					<path class="st4" d="M559.9,557.3c3.6-0.9,7.1-1.8,10.7-2.7c0.4-0.1,0.6,0.5,0.1,0.6c-3.5,0.9-7.1,1.8-10.6,2.8
						C559.7,558.1,559.3,557.5,559.9,557.3z"/>
					<path class="st4" d="M561.2,555.4c0.4-0.1,0.6,0.5,0.2,0.6c-0.5,0.1-1.1,0.2-1.6,0.4c-0.4,0.1-0.6-0.5-0.2-0.6
						C560.1,555.6,560.6,555.5,561.2,555.4z"/>
					<path class="st4" d="M573.5,541.3c-0.3,5-1,10-1.6,15c0,0.4-0.7,0.3-0.6-0.1c0.4-5,0.6-10.1,1.3-15.1
						C572.6,540.6,573.5,540.8,573.5,541.3z"/>
					<g>
						<path class="st4" d="M582.9,546.5c0,7.7,0.6,15.5,1.2,23.2c0,0.2,0.2,0.3,0.3,0.3c0.5,1.7,1.5,3.2,3,4.4
							c3.9,3,9.1,2.4,13.5,0.9c0.3-0.1,0.4-0.3,0.4-0.5c0.1-0.1,0.1-0.1,0.1-0.3c0-0.4-0.1-0.9-0.2-1.3c0,0,0.1,0,0.1,0
							c0.5,0.1,0.5-0.6,0-0.7c-0.1,0-0.2,0-0.3,0c0,0,0,0,0-0.1c1.1,0.4,2.3,0.8,3.4,1.2c0.5,0.2,1.1-0.1,1.1-0.6
							c0.1-0.4,0.1-0.8,0.1-1.3c0,0.7-0.1,1.4-0.1,2.2c0,0.3,0.6,0.5,0.7,0.2c0.4-2.2,0.8-4.5,1-6.8c0.6-1.5,1.1-3,1.5-4.5
							c0.1-0.7-0.8-1-1.1-0.4c0,0,0,0.1,0,0.1c0.2-6.4-0.6-12.9-2.2-18.9c-0.2-0.8-1.6-0.7-1.5,0.2c1.4,8.1,2,15.8,1.9,23.8
							c-0.1,0.4-0.2,0.7-0.3,1.1c-0.6-1.3-1.4-2.4-2.3-3.5c0.4,0,0.4-0.5,0-0.6c-0.2,0-0.4-0.1-0.6-0.1c-2.1-2.3-4.9-4-8.1-4.4
							c-2.8-0.3-5.6,0.5-7.7,2.3c-0.1,0-0.1,0.1-0.1,0.1c-0.8,0.7-1.4,1.5-1.9,2.5c-0.1,0.1-0.1,0.2-0.1,0.3
							c0-6.2-0.1-12.5-0.6-18.6C584.1,545.9,582.9,545.7,582.9,546.5z M599.8,564c-3.8-0.6-7.7-1.2-11.5-1.6
							C592.1,559.5,596.3,561.2,599.8,564z M600.9,570.9c0.9,0.1,1.8,0.3,2.7,0.4c0.5,0.1,0.5-0.6,0-0.7c-6.1-1.1-12.3-2.2-18.4-3
							c0.1-1.5,0.7-3,2-4.2c0,0,0,0,0.1,0c4.5,0.7,9,1.1,13.6,1.5c1.1,1,2.1,2.1,3,3.1c-5.4-1-10.8-2.3-16.2-2.7
							c-0.6,0-0.7,0.8-0.2,0.9c5.5,1.3,11.4,1.7,17,2.5c0.3,0.3,0.5,0.6,0.7,0.9c0,0.1-0.1,0.2-0.1,0.3c-0.4-0.1-0.9,0-1,0.4
							c-0.1,0.5-0.2,1-0.2,1.5C602.9,571.5,601.9,571.2,600.9,570.9z M588,573.4c2.8,0.6,5.5,1.1,8.3,1.6c-2.7,0.4-5.5,0.3-7.9-1.3
							C588.3,573.6,588.2,573.5,588,573.4z M585.8,570.7c4.6,1,9.3,1.6,13.9,2.3c0.1,0.4,0.3,0.7,0.4,1.1h0
							c-0.8,0.3-1.7,0.5-2.6,0.7c0-0.1-0.1-0.2-0.3-0.2c-3.3-0.7-6.6-1.5-9.9-2c-0.1,0-0.2,0-0.3,0.1
							C586.6,572,586.1,571.4,585.8,570.7z M585.5,569.9c-0.2-0.5-0.3-1-0.3-1.5c4.8,0.9,9.6,1.7,14.4,2.3c-0.3,0.1-0.6,0.3-0.4,0.7
							c0.1,0.3,0.2,0.5,0.3,0.8C594.8,571.4,590.2,570.5,585.5,569.9z"/>
						<path class="st4" d="M578.9,528.8c0,10.9-0.8,21.9-1.4,32.8c0,0.4-0.7,0.3-0.7-0.1c0-10.9-0.2-21.9,0.4-32.9
							C577.3,527.6,578.9,527.8,578.9,528.8z"/>
						<path class="st4" d="M605.8,467.3c6.4,20.5,13.7,54.6-13.1,64.3c-0.4,0.1-0.8-0.4-0.3-0.6c24.6-12.5,18.1-42.2,11.5-63.4
							C603.5,466.4,605.4,466.3,605.8,467.3z"/>
						<path class="st4" d="M595.3,472.4c0.3,0.6,0.7,1.2,1,1.9c0.3,0.5,0.1,0.9-0.3,1.1c2.9,13.2,5.1,28.7-5.9,38.7
							c-0.3,0.2-0.8-0.1-0.6-0.5c0.5-0.7,1-1.4,1.5-2.1c-3,0.2-5.6,0.4-7.8,2.9c-1.7,1.9-2.5,4.6-2.3,7.1c0,0.4-0.6,0.3-0.7,0
							c-1.1-6.3,4.3-13.6,11.2-11.9c0.2,0.1,0.4,0.2,0.5,0.3c6.5-11.4,4.4-24.3,1.4-37C593.2,471.7,594.9,471.5,595.3,472.4z"/>
						<path class="st4" d="M603.1,526.5c0.6,3.7,0.6,7.5,0.7,11.2c0,0.4-0.6,0.3-0.7,0c-0.7-3.7-1.4-7.4-1.6-11.2
							C601.4,525.6,603,525.7,603.1,526.5z"/>
						<path class="st4" d="M579.7,529.3c2.6,1.9,5.8,2.5,8.9,1.1c0.4-0.2,0.7,0.3,0.4,0.6c-3,2.8-7.9,2.8-10.9-0.1
							C577,529.9,578.6,528.5,579.7,529.3z"/>
						<path class="st4" d="M619.7,427.3c-9.5,12.6-20,24.6-30.3,36.5c0.4,0.3,0.7,0.8,0.3,1.2c-1.7,1.9-1.4,5.5,1,6.7
							c0.4,0.2,0.1,0.7-0.3,0.6c-1.8-0.5-3.1-1.7-3.6-3.6c-0.2-0.6-0.2-1.3-0.2-1.9c-0.4,0.5-0.8,0.9-1.2,1.4
							c-0.3,0.3-0.9,0-0.6-0.4c10.8-14,21.6-28.3,33.2-41.7C618.8,425.5,620.4,426.4,619.7,427.3z"/>
						<path class="st4" d="M631.6,422.5c0.9,0.5,0.4,1.8-0.6,1.7c-1.7-0.2-3.3-0.6-5-0.1c-1.9,0.6-3.4,1.9-4.3,3.7
							c-0.2,0.4-0.8,0.1-0.7-0.2C622.6,423.7,627.4,420.4,631.6,422.5z"/>
						<path class="st4" d="M616.9,438.1c20.1,17.8,44.2-2.9,58.4-17.5c0.3-0.3,0.9,0.1,0.6,0.4c-9.1,10-18.9,20.9-32.3,24.7
							c-10,2.8-21.1,1.5-28.8-5.9C613.4,438.4,615.7,437,616.9,438.1z"/>
						<path class="st4" d="M630.5,424.2c9.8-0.4,18.5-3.1,24.7-11.2c0.2-0.3,0.8,0,0.6,0.4c-5.9,7.7-15,13.6-25.1,12.9
							C629.6,426.2,629.2,424.2,630.5,424.2z"/>
						<g>
							<g>
								<g>
									<path class="st4" d="M621.8,400.1c-4.1-0.5-7.2,1.6-10.3,4.1c-0.9,0.8-1.8,1.6-2.8,2.4c-0.1-0.2-0.4-0.3-0.5-0.1
										c-3.9,3.9-7.9,7.7-11.8,11.6c-0.9,0.9-1.8,1.7-2.8,2.6c-7.9,7.3-16.6,14.8-23.3,23.5c0,0,0,0-0.1,0.1
										c-0.4-0.1-0.9,0-1.2,0.3c-2.1,2.3-3.7,4.8-4.7,7.5c-0.2,0-0.4,0.1-0.6,0.3c-0.4,0.3-0.7,0.5-1,0.8
										c-5.9,2.5-7.9,10.3-8.3,16.5c0,0.1,0,0.2,0.1,0.3c-0.1,1.3-0.2,2.5-0.3,3.8c-0.1,0.1-0.1,0.3-0.1,0.4c0,0.1,0,0.3,0,0.4
										c0,0.1,0,0.2,0,0.4c-0.1,11.2,0.2,23.6,2.5,34.6c0.1,0.2,0.3,0.3,0.5,0.3c-4.9,11.6-1.1,26.5-2.6,38.6
										c-0.2,1.3,2.1,1.6,2.3,0.2c2-11.6-1.7-23.7,1.7-35.1c5.1-17.2,24.9-20.4,37.4-9.2c0.3,0.3,0.7,0,0.5-0.4
										c-4.3-5.5-10.6-8.4-17-8.6c-0.1-0.3-0.5-0.6-0.9-0.4c-3.1,1.5-2.9-4.4-2.9-5.9c-0.1-2.5-0.2-5-0.2-7.4c0-0.1,0-0.1,0-0.2
										c1.4,0.9,3,1.6,4.6,2.1c0.4,0.1,0.6-0.4,0.2-0.6c-11.9-5.7-16.3-17.2-13.3-28.2c0.1,0,0.2,0,0.3,0c1.3,0,1.3-1.7,0.4-2.3
										c0.4-1.1,0.9-2.2,1.4-3.3c6.9-7.6,13.9-14.9,21.5-21.9c4.8-4.4,9.6-8.9,14.5-13.3c4.7-4.3,9.6-10.6,16.3-11.4
										C622.6,402.6,623.6,400.4,621.8,400.1z M558.1,507.9c-0.1,0.3-0.3,0.5-0.4,0.8c0.1-0.8,0.1-1.7,0.1-2.5
										C557.9,506.8,558,507.3,558.1,507.9z M573.8,480.7c-0.6,0.1-1.2,0.5-1.1,1.2c0.1,2.5,0.2,5,0.4,7.4c0.1,1.7,0,3.5,0.6,5.1
										c0.2,0.5,0.5,1,0.9,1.4c-4.3,0.8-8.4,2.7-11.8,5.9c-1.5,1.5-2.8,3-3.8,4.7c-0.4-10.7-1.4-21.3-2.3-32c0,0,0,0,0,0
										c0.5-6.8,2.2-13.1,6.7-17.8C561.8,465.6,566,475.2,573.8,480.7z"/>
								</g>
							</g>
						</g>
						<path class="st4" d="M572.7,479.3c0.9,5.8,1.6,11.8,1.9,17.7c0,0.5-0.8,0.5-1,0c-1.3-5.8-2.2-11.8-2.8-17.7
							C570.6,478.3,572.5,478.3,572.7,479.3z"/>
						<path class="st4" d="M590.9,468.9c0.5,0.3,0.9,0.7,1.3,1.1c0.4,0.4,0.8,0.8,1.2,1.2c0.4,0.4-0.2,0.8-0.6,0.6
							c-0.5-0.3-1-0.6-1.4-1c-0.5-0.3-1-0.6-1.3-1C589.5,469.2,590.3,468.6,590.9,468.9z"/>
						<path class="st4" d="M596.4,456c4.2,0.3,7.3,4.6,7,8.6c0,0.4-0.6,0.3-0.7,0c-0.7-3.7-3.3-5.6-6.7-6.5
							C594.7,457.7,595.1,455.9,596.4,456z"/>
						<path class="st4" d="M632.9,445.5c-4.2,11.6-14.7,21.8-24.9,28.4c-1.4,0.9-3.4-1.1-1.9-2.1c11.1-7.3,18.2-16.4,26.1-26.7
							C632.5,444.9,633,445.1,632.9,445.5z"/>
						<path class="st4" d="M618.5,441.2c-4.7,6.7-11,12.5-16.7,18.4c-0.8,0.9-2.7-0.2-1.8-1.2c5.7-6,11.4-12.6,17.9-17.7
							C618.3,440.5,618.7,440.9,618.5,441.2z"/>
						<path class="st4" d="M583.4,484c3.8,0.6,8.2,0.2,11.4-2.2c0.3-0.2,0.7,0.2,0.4,0.4c-3.5,3-7.4,4.6-12,3.2
							C582.2,485.2,582.4,483.9,583.4,484z"/>
						<path class="st4" d="M641.8,421.3c0,0.5-0.7,0.4-0.8-0.1c-0.6-16.3-17.9-25-30.9-14.8c-0.8,0.6-2-0.5-1.2-1.2
							C622,393.4,643.5,403.4,641.8,421.3z"/>
						<path class="st4" d="M634.2,423c0.5,0.2,0.4,0.9-0.2,0.9c-8.1-0.5-15.2,2.2-19.3,9.5c-0.6,1-2.6,0.1-2.1-1
							C616.3,424.8,626,419.6,634.2,423z"/>
						<path class="st4" d="M659,389.5c-2.9,2.5-5.5,5.4-7.2,6.9c-4.2,3.8-8.3,7.9-13.1,11c-0.2,0.2-0.7-0.1-0.5-0.4
							c5.1-6.3,11.9-11.3,18-16.6c0.8-0.7,1.6-1.5,2.5-2.3C658.7,388.6,658.8,389.1,659,389.5z"/>
						<path class="st4" d="M671.6,387.1c0.4-0.9,0.7-1.8,0.9-2.8c0.1-0.5,0-1.1-0.4-1.4c0-0.2,0-0.5,0-0.7c0-1.1,1.8-0.9,1.8,0.2
							c-0.1,9.2-5.4,18.8-14,22.6c-0.3,0.1-0.7-0.3-0.4-0.5C665.8,400,670.1,394.3,671.6,387.1z"/>
						<path class="st4" d="M697.2,381.9c1.7,10.1-1.9,20.7-9.9,27.2c-0.3,0.2-0.8-0.2-0.5-0.5c7-7.3,10.5-16.5,9.3-26.6
							C696,381.4,697,381.3,697.2,381.9z"/>
						<path class="st4" d="M680.9,361.4c4,0.9,7.6,3.6,10,9c0.1,0.3,0.8,0.2,0.6-0.2c-2-5.2-5.7-8.2-10.2-9.5
							C681.2,361,681.1,361.2,680.9,361.4z"/>
						<path class="st4" d="M660.6,364.3c-7.8,4.5-14.8,10.8-21.5,16.8c-6.8,6.1-14.2,12.5-19.6,19.9c-0.7,1,0.8,2.1,1.7,1.4
							c10.3-8.9,19.3-19.3,29.6-28.2c2.3-2,5.2-4.2,8.4-6.3C659.5,366.6,660,365.4,660.6,364.3z"/>
						<path class="st4" d="M733.5,364.7c-7.3,8.7-14.6,17.4-21.9,26.1c-5.3,6.3-10.2,13.4-18.5,15.5c-1.1,0.3-2-1.6-0.8-1.9
							c9.6-2.6,15.7-12.2,22-19.3c6.2-6.9,12.4-13.9,18.5-20.8C733.1,363.9,733.8,364.3,733.5,364.7z"/>
						<path class="st4" d="M696.7,316.9c-19.3,18.2-54.8,54.7-29.6,81.6c0.4,0.5-0.2,1-0.7,0.7c-13.6-9.2-11.4-28.2-5.4-41.1
							c7.4-16.1,19.7-32.3,34.2-42.6C696.2,314.7,697.6,316,696.7,316.9z"/>
						<path class="st4" d="M710.9,330.7c-8.5,8-16.6,16.3-24,25.3c-6.8,8.3-18.4,19.2-12.5,30.7c0.2,0.3-0.3,0.5-0.5,0.3
							c-0.7-0.6-1.2-1.2-1.6-1.9c0.1-0.3,0.1-0.5,0.2-0.8c0.2-0.7-0.2-1.6-1-1.6c-0.1,0-0.3,0-0.4,0c-2.5-7.2,4.4-15.8,8.7-21.3
							c9-11.5,19-22.4,29.6-32.4C710.3,328.1,712,329.7,710.9,330.7z"/>
						<path class="st4" d="M723.1,305.4c25,2.2,30.4,33.7,15.6,50.4c-0.3,0.3-0.9,0-0.7-0.4c5.5-8.6,9.1-18.1,6.6-28.4
							c-2.5-10.4-11.1-18.1-21.6-19.4C721.6,307.4,721.5,305.3,723.1,305.4z"/>
						<path class="st4" d="M715.1,337.9c3.4,4.9-0.8,9.4-4,13.2c-5.5,6.5-11.5,12.3-18.2,17.5c-0.4,0.3-0.9-0.2-0.6-0.6
							c4.4-3.9,8.6-8.1,12.6-12.5c3.2-3.6,11.9-11.5,8.4-17C712.7,337.5,714.5,337,715.1,337.9z"/>
						<path class="st4" d="M722.7,328.3c5.5,2.1,8,8.3,6.3,13.8c-0.1,0.4-0.8,0.2-0.7-0.2c1.3-5.1-1.5-10.1-6.1-12.2
							C721.4,329.1,721.7,327.9,722.7,328.3z"/>
						<path class="st4" d="M717.6,304.1c0.4,0,0.5,0.6,0.1,0.7c-9.2,1.6-16.1,4.9-22.4,11.8c-0.7,0.8-2.3-0.1-1.6-1.1
							C699,308.1,708.4,303.3,717.6,304.1z"/>
						<path class="st4" d="M707.7,367.7c-3.2,3.4-6.2,7.3-9.8,10.4c-0.5,0.4-1.6-0.3-1.1-0.9c3-3.6,7-6.6,10.3-9.9
							C707.5,367,708,367.4,707.7,367.7z"/>
					</g>
				</g>
				<path class="st4" d="M440.1,777c-9.8-1.6-19.6-2.6-29.4-3.9c-0.4,0-0.6,0.5-0.2,0.6c9.8,1.4,19.6,3,29.4,4.1
					C440.3,777.8,440.6,777.1,440.1,777z"/>
				<path class="st4" d="M416.9,771c-0.4-0.1-0.6,0.5-0.2,0.6c10,1.7,19.9,3.8,29.9,5.2c0.5,0.1,0.8-0.7,0.3-0.8
					C436.9,774.1,426.9,772.7,416.9,771z"/>
				<path class="st4" d="M427.4,770c-0.4-0.1-0.6,0.5-0.2,0.6c7.7,2.1,15.3,4.2,23,6.3c0.4,0.1,0.6-0.5,0.2-0.6
					C442.8,774.1,435.1,772,427.4,770z"/>
				<path class="st4" d="M437.9,770.4c-0.4-0.1-0.6,0.5-0.2,0.6c4.4,1.3,8.8,2.7,13.3,4c0.4,0.1,0.7-0.5,0.2-0.6
					C446.8,773,442.3,771.7,437.9,770.4z"/>
				<path class="st4" d="M441.8,769.8c-0.4-0.1-0.7,0.6-0.2,0.7c2.8,0.7,5.7,1.3,8.5,2c0.6,0.1,1-0.9,0.3-1
					C447.5,770.9,444.7,770.3,441.8,769.8z"/>
				<path class="st4" d="M443.8,766.8c-0.6-0.1-1,0.8-0.3,1c1,0.2,2,0.5,3,0.7c0.7,0.2,1.1-0.9,0.3-1.1
					C445.8,767.2,444.8,767,443.8,766.8z"/>
				<path class="st4" d="M451.7,772.7c1.2,2.9,2.2,6,3.7,8.7c0.2,0.4,1,0.1,0.8-0.4c-0.4-1.2-0.9-2.4-1.5-3.6
					c1.1,1.5,2.2,3.1,3.5,4.5c0.3,0.3,1-0.2,0.7-0.6c-1.7-2.4-3.6-4.7-5.5-6.9c0-0.1-0.1-0.1-0.2-0.1c-0.3-0.7-0.7-1.4-1-2.1
					C452.1,772,451.6,772.3,451.7,772.7z"/>
				<path class="st4" d="M454.7,775.5c1.7,1.9,3.4,3.9,5.3,5.7c0.4,0.4,1.2-0.3,0.8-0.8c-1.8-1.9-3.6-3.7-5.5-5.4
					C454.9,774.7,454.4,775.2,454.7,775.5z"/>
				<path class="st4" d="M457.4,775.9c1.5,1.3,3,2.5,4.6,3.6c0.4,0.3,1.1-0.3,0.7-0.6c-1.5-1.3-3.1-2.4-4.8-3.5
					C457.6,775.2,457.1,775.6,457.4,775.9z"/>
				<path class="st4" d="M513.3,759.6c-7.4,6.4-15.3,10.5-23.9,14.8c-0.4,0.2-0.2,0.7,0.3,0.6c8.2-1.7,16.2-6.2,22.8-11.5
					c0.4,0.7,1.8,0.6,2.2-0.4c0.3-0.8,0.6-1.6,0.9-2.5C516,759.3,514.1,758.9,513.3,759.6z"/>
				<path class="st4" d="M541.8,746.6c2.2,15.2-15.9,26.5-26.8,33.7c-9.8,6.5-20.3,11-30.9,15.8c-0.4-1-1.8-1.6-3-0.5
					c-15.8,15.1-34.9,23.6-57.1,20.5c-0.7-0.1-1.2,1.1-0.4,1.2c20.8,3.7,45.4-2.6,59.7-18.9c14.7-4,28.9-12.6,41-21.6
					c9.6-7.2,23.3-17.2,20.3-31C544.1,744,541.5,745,541.8,746.6z"/>
				<g>
					<path class="st4" d="M500.9,747.6c0,0,0,0.1,0,0.1c-0.1,0-0.3,0.1-0.5,0.1c-3.7,1.6-7.2,3.8-10.6,5.9c-2.8,1.7-5.8,3.3-8.5,5.4
						c-0.3-0.2-0.6-0.4-0.9-0.6c-0.5-0.3-1.2,0.3-1.1,0.8c0.1,0.5,0.2,0.9,0.3,1.4c-0.1,0.3,0,0.6,0.3,0.8c1,2.3,2.7,4.5,4,6.5
						c1.3,2,2.4,4.1,3.9,6c0.8,8.1,0.5,14.3-4.8,21c-0.5,0.6,0.5,1,0.9,0.6c5.6-4.2,9.3-12.4,8-19.5c0.5-0.4,0.8-1.1,0.6-1.8
						c3.7-0.6,7.2-2.2,10.5-3.8c4.3-2.1,9.2-4.6,12.2-8.4c0.9-1.2-0.1-2.1-1.2-2.2c-0.1-0.1-0.2-0.3-0.4-0.3c-3.1-1-5.9-1.9-7.8-4.8
						c-1.5-2.4-1.2-4.7-1.6-7.3C504,745.5,501.4,746.4,500.9,747.6z M510.8,761.3c-3.2,1.9-6.2,4.4-9.6,6.1
						c-3.2,1.7-6.7,2.8-9.9,4.4c-1.5-2.3-3.4-4.5-5-6.6c-1-1.4-2.1-3-3.3-4.4c2.7-1.1,5.3-2.5,7.8-3.9c3.1-1.6,6.5-3.2,9.5-5.2
						C500.9,756.6,505.8,761.1,510.8,761.3z"/>
				</g>
				<path class="st4" d="M553,679.8c-2.8,0.1-3.3,4.4-0.2,4.3c17.9-0.6,23.8,20.3,17.6,34c-6.7,15.1-22.4,23.6-36.1,31.4
					c-0.8,0.4-0.3,1.7,0.5,1.3c18-7.7,37.8-17.8,42.4-38.8C580.5,696.5,570.1,679.3,553,679.8z"/>
				<path class="st4" d="M578.5,668.2c-8.1,5.7-19.2,5.3-24.5-4.3c-0.3-0.5-1.1-0.1-0.9,0.4c0.6,1.7,1.3,3.2,2.2,4.6
					c-0.4,0.2-0.8,0.6-1,1.2c-1,3.3-1.7,7-2.1,10.4c-0.2,1.3,1.7,1,2.1,0.1c1.3-2.8,2.5-5.7,3.4-8.7c1.8,1.8,3.9,3.1,6.8,3.8
					c4.4,1.1,9.3,0.4,13.3-1.9c1.6,7.6-0.6,13.4-4.8,19.8c-0.5,0.8,0.4,1.3,1.1,1c8-3.9,11.1-15.1,8-23.2c-0.1-0.3-0.3-0.6-0.5-0.8
					C582.4,669,580.4,666.8,578.5,668.2z"/>
				<path class="st4" d="M597.2,605.6c-0.9,10.4-0.4,20.4-2.7,30.8c-2.1,9.4-5.5,18.6-9.5,27.4c-0.5,1,1.2,1.3,1.7,0.6
					c3.7-5.4,6.7-11.2,9-17.2c3.6,12,4.9,24.4,2.9,36.9c-1.2,7.7-3.5,15.7-7.6,22.4c-4.6,7.4-10.6,11.2-18.6,14.1
					c-0.6,0.2-1,1.3-0.1,1.4c16.4,1.7,26.2-17.2,29.5-30.4c4.4-17.2,3.1-35.5-3.6-51.8c0.4-1.6,0.9-3.1,1.2-4.7
					c2.2-9.5,3.9-20.6,1.8-30.1C600.7,602.5,597.3,603.6,597.2,605.6z"/>
				<g>
					<g>
						<g>
							<g>
								<g>
									<path class="st4" d="M559.5,586.4c-0.6-0.1-1,0.8-0.3,0.9c5.8,1.5,9.6,5.7,11.4,11c-0.6,0.5-0.6,1.2-0.2,1.7
										c-1.7,6.9-3.7,14-4.6,21.1c-9.6-2.7-17.4,1.6-23,8.4c1.1-4.9,1.7-10,2.4-14.9c1-7.1,2.3-14.2,2.8-21.3c0-0.1,0-0.2,0-0.3
										c0.5-0.4,1-0.9,1.6-1.2c0.6-0.4,1.3-0.7,2-1c0.5,1,2.2,1,2.5-0.2c0.3-1.1,1-0.3,1.7-0.4c0.7-0.1,1.3-0.5,1.8-0.9
										c1-0.7,0.6-2.5-0.8-2c-0.3,0.1-0.6,0.2-0.9,0.3c-1-0.3-2.2-0.1-3,0.5c-0.3-0.1-0.5-0.1-0.7,0c-1.2,0.5-2.6,0.8-3.6,1.7
										c-0.6,0.6-1,1.3-1.5,2c-0.1,0.1-0.2,0.2-0.2,0.3c-0.6,0-1.2,0.4-1.3,1c-1.2,6.3-1.9,12.7-2.7,19.1
										c-0.8,6.7-2.1,13.5-2,20.2c-3.9,5.8-6.4,12.7-7.4,18.9c-2.2,14.4-0.8,29.7,3.8,43.6c0,0,0,0,0,0
										c-9.9,5.9-19.6,12.5-28.9,19.2c-5.7,4.1-11.4,8.8-12.3,16c-6.7,3.2-13.3,6.7-19.8,10.5c-5.3,3.1-12.5,6.3-16.2,11.4
										c-0.1-0.1-0.3-0.1-0.4-0.1c-23.2-5.8-49.7-1.6-70.8,9.1c-0.8,0.4-0.3,1.7,0.5,1.3c22.3-8.5,44.1-10,67.6-6.8
										c-4.8,5.6-7.1,14-5.7,21.3c-0.2-0.1-0.4-0.1-0.6,0c-7.9-0.9-16.2,0-24.1,1.1c-5.9,0.8-15.1,1-20,4.9
										c-5.8,4.7-1.1,11.7,2.9,10.2c5,1.4,11-0.1,15.9-0.9c9.1-1.4,18.2-2.9,27.3-4.7c1.1-0.2,1.7-1.2,1.7-2.2
										c0.6-0.3,1.2-0.9,0.9-1.6c-0.2-0.4-0.4-0.8-0.7-1.1c0.2-0.2,0.3-0.4,0.2-0.6c-2.8-10.9-1-19.4,7-27.5
										c0.6-0.6,0.5-1.2,0.2-1.7c6.1-1.8,11.9-6.8,17.4-9.9c6.9-4,14-7.6,21.2-11.1c2.2-1.1,0.7-3.9-1.4-3.3
										c3.7-7.6,11.8-11.6,18.8-16.2c7-4.6,14.2-9,20.9-13.9c1.4,3.8,3.1,7.4,5,10.9l0,0c-1.3,0.7-6,3-10.4,5.9
										c-1.6-0.5-3.3-0.9-4.9-1.3c-0.2-0.1-0.4,0.3-0.1,0.4c1.5,0.4,3,0.9,4.5,1.3c-0.6,0.4-1.3,0.8-1.9,1.3
										c-1.8-0.6-3.7-1.1-5.5-1.6c-0.3-0.1-0.5,0.4-0.2,0.5c1.7,0.5,3.4,1.1,5,1.6c-0.5,0.3-0.9,0.7-1.3,1
										c-2.1-0.4-4.2-0.7-6.4-1.1c-0.2,0-0.4,0.3-0.1,0.4c2,0.4,4,0.8,6,1.2c-0.5,0.4-1,0.9-1.4,1.3c-2.3-0.7-4.6-1.1-7-1.7
										c-0.2,0-0.4,0.3-0.1,0.3c2.2,0.6,4.4,1.3,6.7,1.8c-1.4,1.5-2.1,3-1.8,4.2c-0.2,0-0.4,0-0.6,0c-0.2,0-0.4,0.1-0.5,0.3
										c0-0.1-0.1-0.1-0.2-0.1c-3-0.2-6.1-0.3-9.1-0.4c-0.2,0-0.3,0.4-0.1,0.4c3,0.2,6.1,0.4,9.1,0.5c0.1,0,0.1,0,0.1-0.1
										c0,0.1,0,0.3,0.2,0.4c1.6,1.4,3.8,2.1,5.8,2.9c1.8,0.7,3.6,1.6,5.5,2c-0.1,0.5,0.5,1,1,0.6c0.3-0.2,0.5-0.3,0.7-0.5
										c0.4-0.1,0.7-0.3,1-0.6c5.3-3.6,9.7-9,13.9-13.7c1.4-1.5,0.2-3.3-1.3-3.4c-0.1-0.2-0.2-0.5-0.5-0.7
										c-0.4-0.4-0.8-0.7-1.2-1.1c-0.8-0.7-1.6-1.5-2.5-2.1c-0.2-0.2-0.6-0.3-0.9-0.2c-0.2-0.1-0.4-0.1-0.7-0.1c0,0,0-0.1,0-0.1
										c-5.5-15-8.6-30-8-46c0.6-16.7,7-42,28.9-37.7c0.9,0.2,1.6-0.1,2.1-0.6c0.2,0.1,0.3,0.2,0.5,0.2c0.1,0.2,0.3,0.4,0.4,0.6
										c0.8,1.2,3,0,2.2-1.3c-0.6-0.9-1.1-1.8-1.7-2.7c-0.3-0.4-0.7-0.6-1.2-0.5c2.4-6.5,3.9-13.4,5.6-20.2
										c0.1-0.1,0.1-0.3,0.1-0.5c0,0,0,0,0-0.1c0.1-0.4,0.2-0.9,0.3-1.3c0.2-0.8-0.2-1.4-0.8-1.6
										C571.3,591.6,565.8,587,559.5,586.4z M449.7,782.2c0.2,0.5,0.4,1.1,0.8,1.7c-6.5,1.2-13,2.5-19.4,3.7
										c-6.5,1.3-13,3.4-19.6,3.4c0-0.5-0.6-0.7-1-0.3c0-2.1,0.1-4.1,0.1-6.2l1.7-0.5c1.7-1,5-0.9,6.9-1.2c3.4-0.5,6.9-1,10.3-1.3
										c6.6-0.6,13.3-0.5,19.9-0.9C449.4,781.2,449.5,781.7,449.7,782.2z M545.8,713.8c0.4,0.6,0.8,1.3,1.3,1.8
										c-3.7,3.8-7.8,7.9-10.7,12.4c-1.9-0.8-3.9-1.3-5.9-1.8c-1.2-0.3-2.4-0.7-3.6-0.9c0.8-3.4,6-5.3,8.7-6.9
										c3.2-1.8,6.4-3.6,9.5-5.6C545.3,713.2,545.5,713.5,545.8,713.8z"/>
								</g>
							</g>
						</g>
					</g>
				</g>
				<path class="st4" d="M554.9,537.2c-1.4,7.6-2.8,15.9-2.6,23.7c0,0.2,0.1,0.4,0.3,0.5c-0.1,0.1-0.2,0.2-0.2,0.3
					c-0.1,0.8,0.5,1.4,1.2,1.7c0.1,0.4,0.1,0.8,0.2,1.2c0.1,0.7,0.9,0.8,1.4,0.6c0.1,0.3,0.2,0.5,0.3,0.8c0.5,0.7,1.7,0.5,1.9-0.3
					c0.2-0.8,0-1.5-0.2-2.3c-0.2-0.7-1.1-0.9-1.6-0.6c0,0,0,0-0.1,0c0-0.1-0.1-0.3-0.1-0.4c-0.2-0.6-0.8-0.8-1.4-0.5
					c-0.3,0.2-0.6-0.2-0.8-0.4c0.3-0.1,0.5-0.2,0.6-0.5c2.2-7.6,3.2-16.1,3.9-24C557.9,535.2,555.2,535.7,554.9,537.2z"/>
				<path class="st4" d="M557.6,566.9c-0.4,0.1-0.6,0.7-0.2,0.9c4.2,1.7,9.7,2,14.2,1.9c1.4,0,2.1-2.2,0.5-2.5
					C567.6,566.4,562,565.9,557.6,566.9z"/>
				<path class="st4" d="M580.7,532c-0.1,0-0.2,0-0.4-0.1c-0.2,0-0.3-0.1-0.5-0.1c-0.6-1.2-2.9-0.7-2.9,0.8
					c-0.1,10.7-0.8,21.4-1.6,32.1c0,0-0.1,0-0.1,0c-0.6-0.4-1.4,0.1-1.6,0.7c-0.3,0.4-0.6,0.8-0.9,1.2c-0.2,0.2-0.4,0.7,0.1,0.7
					c0.3,0,0.7,0.1,1,0.1c0.4,0.1,0.7-0.1,1-0.4c0.2,0.2,0.5,0.4,0.7,0.6c0.8,0.7,2,0,2.2-1c1.6-10.9,2.2-21.9,2.3-32.9
					c0.2,0.1,0.5,0.2,0.7,0.3c0.7,11.5,0.7,23.6,2.7,34.9c0,0.1,0,0.1,0,0.2c0,0.2,0.1,0.4,0.1,0.6c0.1,0.4,0.1,0.9,0.2,1.3
					c0,0.2,0.1,0.2,0.2,0.3c0.2,0.5,0.3,0.9,0.5,1.4c0.2,0.5,0.6,0.7,1,0.7c1.3,1.7,3.1,3,5.2,3.6c3.2,1,5,0.5,7-1.6
					c0.3,0.1,0.6,0.2,0.9,0.3c0.8,0.3,1.8,0,2-0.9c0.2,0,0.4,0,0.7-0.1c1.1,0.7,2.8-1.1,1.7-2c-1.4-1.1-3.1-0.9-4.1,0.3
					c-0.2-0.1-0.4-0.1-0.6-0.2c-0.5-0.2-1.2-0.2-1.6,0.3c-1.6,1.8-2.9,2.2-5.3,1.2c-2.1-0.8-3.4-2.2-4.5-4.1
					c-0.3-0.5-0.8-0.6-1.2-0.5c-0.2-0.3-0.5-0.6-0.7-1c0.8-12.1-0.5-24.8-0.9-36.9C583.7,530.3,581.2,530.5,580.7,532z"/>
				<path class="st4" d="M603.5,528.1c-0.1-0.1-0.2-0.2-0.3-0.3c0.1-0.1,0.1-0.1,0.2-0.2c-0.1-0.5-0.1-1.1,0-1.6
					c0.3-1.6,1.5-2.6,2.6-3.7c-0.5-0.4-1.3-0.4-1.9,0.2c-2.5,2.4-4.6,4.7-7.7,6.5c-3.2,1.8-6.8,2.8-10.4,3.3
					c-0.4,0.1-0.7,0.7-0.2,0.8c4.9,0.8,10.7-0.5,15.1-3.4c2,13.8,2.5,27.4,2.6,41.3c-0.3-0.2-0.6-0.3-0.9-0.5
					c-0.7-0.3-1.5,0.6-0.9,1.1c0.7,0.7,1.4,1.4,2.2,2.1c0.7,0.7,1.8,0,1.9-0.9c1.6-14.1,0.6-29-1.9-42.9
					C603.7,529.3,603.6,528.7,603.5,528.1z"/>
				<path class="st4" d="M579.9,522.8c0.2,0.5,0.9,0.1,0.9-0.3c0.3-3.1,0.8-5.9,3.2-8.1c2-1.8,4.3-1.8,6.8-2.4
					c1.2-0.3,1.3-1.9,0.1-2.3C584.2,507.7,577.2,516.7,579.9,522.8z"/>
				<path class="st4" d="M572.9,496.7c-0.4,0.2-0.3,0.8,0.2,0.8c8.1-0.6,15.7,1.1,21,7.8c1.2,1.5,4-0.2,2.8-1.7
					C591.4,496.7,581.4,492.7,572.9,496.7z"/>
				<path class="st4" d="M603.3,472.5c8.3,16.2,7,33.7,0.7,50.3c-0.2,0.4,0.4,0.5,0.6,0.2c10.4-15.4,9.5-35.9,1.6-52.2
					C605.4,469.1,602.5,470.8,603.3,472.5z"/>
				<path class="st4" d="M588.3,467.1c-1.4-0.4-2.6,1.8-1.2,2.5c5,2.4,7.2,7.1,8,12.5c-8.4,3.8-16.4,1.9-23.2-4.2
					c-0.3-0.2-0.7,0.1-0.6,0.4c0.2,0.4,0.5,0.8,0.7,1.2c-0.2,0.1-0.4,0.2-0.5,0.3c-0.1,0.1-0.3,0.3-0.5,0.4c-0.6,0.6-0.5,1.6,0.1,2
					c0.3,2.5,0.7,5,1,7.6c0.3,2.4,0.3,5.2,1.6,7.3c0.2,0.3,0.7,0.2,0.8-0.1c0.8-2.4,0.3-5.1,0.1-7.6c-0.1-2.4-0.3-4.7-0.5-7.1
					c5.4,5.4,14.1,6.5,21.1,3.1c0.4,6.8-0.7,14.3-0.5,19.7c0,0.5,0.7,0.5,0.8,0.1c2.7-7.8,2.7-16.8,1.9-24.9
					C597,473.9,594.7,468.8,588.3,467.1z"/>
				<path class="st4" d="M611.1,435.7c-5.2,6.3-10.4,12.7-15.1,19.4c-0.5,0.7,0.6,1.3,1.1,0.7c4.9-5,9.5-10.3,14-15.7
					c0.6,1,1.4,1.9,2.4,2.5c-2.2,2.7-4.4,5.3-6.8,7.8c-2.7,2.8-5.8,5.3-8.3,8.2c-0.2,0.3-0.1,0.8,0.4,0.6
					c6.9-2.9,13.2-9.5,17.6-15.6c0.1,0,0.1,0,0.2,0c1.2,0.1,1.9-1.8,0.8-2.3c-1.2-0.6-2.4-1-3.5-1.8c-0.5-0.4-0.8-0.8-1.2-1.2
					c0.2-0.2,0.4-0.5,0.6-0.7C614.6,436.1,612.4,434.2,611.1,435.7z"/>
				<path class="st4" d="M682,363.2c11,4.4,14.8,16.1,12.1,27.1c-2.6,10.5-9.8,18.9-16.7,26.9c-13.3,15.5-31.4,34-53.9,25.7
					c-0.4-0.1-0.8,0.4-0.4,0.6c2.2,1.3,4.5,2.2,6.7,2.8c-6.4,10.7-14.6,19.1-24.1,27.2c-0.7,0.6,0.1,1.4,0.8,1
					c11.1-6.3,19.9-16.2,26.3-27.2c0.1-0.1,0.1-0.2,0.2-0.3c19.9,3.2,37.8-16.8,49.7-31c7.4-8.8,14.5-18.6,15.5-30.4
					c0.9-10.6-4.2-21.4-14.5-25.1C682,359.8,680,362.4,682,363.2z"/>
				<path class="st4" d="M658.7,363.3c-4.5,11-4.2,27.3,4.6,36.3c-1.7,2.2-3.6,4.3-5.3,6.3c-2.5,3-12.7,17.6-17,15.5
					c-0.3-0.1-0.8,0.2-0.6,0.6c4.2,6.2,14.1-7.7,16.6-10.5c7-7.7,17.6-17.6,17.8-28.7c0-2-2.9-1.6-3.1,0.2
					c-0.8,5.7-3.7,10.6-7.2,15.1c-2.1-4.8-4.4-9.4-5.3-14.7c-1.2-6.8-0.6-13.2,1.5-19.8C661.1,362.4,659.1,362.2,658.7,363.3z"/>
				<path class="st4" d="M656.3,389c-6.3,5.3-11.4,12.1-17.3,17.9c-0.5-0.3-1.2,0.1-1.2,0.6c-0.1,2.5,1.2,5.1,1.7,7.5
					c0.5,2.8,0.6,5.5,1,8.3c0.2,1.7,2.9,0.9,2.9-0.5c0.1-2.9-0.4-5.9-1.1-8.6c-0.5-1.8-1-4.2-2-5.9c7.3-4,12.2-11.9,18.4-17.3
					C660.2,389.5,657.9,387.7,656.3,389z"/>
				<path class="st4" d="M705.7,333.5c-0.8,0.4-0.9,1.1-0.7,1.7c-8.6,6.6-16.8,15.5-22.3,24.8c-0.5,0.8,0.6,1.3,1.1,0.8
					c8-8.1,16-16.3,24-24.4l0,0c4.1,1,5.5,3.5,4.1,7.3c-0.5,1.8-1.2,3.5-2.1,5.2c-1.5,2.8-3.4,5.2-5.6,7.5c-3.8,4-8.2,7.3-12,11.3
					c-0.4,0.4,0.1,1,0.6,0.7c9.6-4.9,20.3-13.9,22.6-24.9C716.7,337.4,712.5,330.1,705.7,333.5z"/>
				<path class="st4" d="M693.5,314c-8,6.7-14.5,15.4-20.7,23.7c-7.4,9.9-14,20.4-18.9,31.8c-0.8,1.9,2.3,2.2,3,0.6
					c7.9-17.8,19.8-35.1,33.3-49.1c12.9-13.3,37.9-22.7,51-3.9c11.7,16.9-3.8,39-13.9,52.6c-5.6,7.6-11.9,14.6-18.8,21
					c-6.4,6-13.9,10.9-20.2,16.9c-0.7,0.6,0.1,1.4,0.8,1c10-4.4,18.7-12.9,26.3-20.6c7.3-7.4,13.9-15.6,19.6-24.4
					c9.7-14.8,21.1-37.2,5.4-52.3C726.9,298.6,706.6,303.2,693.5,314z"/>
				<path class="st4" d="M480.5,789c-5.6,7.6-13,12.9-22.5,14.4c-0.3,0.1-0.4,0.6,0,0.6c9.4-1.3,18.4-6.3,23.5-14.5
					C482,788.8,481,788.4,480.5,789z"/>
				<path class="st4" d="M480.3,785.2c-3.5,4.8-7.8,8.7-13.2,11.3c-0.2,0.1,0,0.3,0.1,0.2c5.4-2.5,10.1-6.3,13.4-11.3
					C480.8,785.1,480.4,784.9,480.3,785.2z"/>
				<path class="st4" d="M479.4,779.7c-2.7,5-6.8,9.1-12.1,11.2c-0.2,0.1-0.1,0.4,0.1,0.3c5.5-2.2,9.8-6,12.4-11.4
					C479.9,779.6,479.5,779.4,479.4,779.7z"/>
				<path class="st4" d="M476.5,776.1c-1.4,3.7-3.6,6.7-6.9,8.8c-0.2,0.1,0,0.4,0.2,0.3c3.4-2.1,6.1-5.1,7.3-9
					C477.1,775.8,476.6,775.8,476.5,776.1z"/>
				<path class="st4" d="M474.5,776c-0.6,0.8-1.1,1.7-1.6,2.5c-0.2,0.3,0.3,0.5,0.5,0.2c0.5-0.8,1.1-1.7,1.6-2.5
					C475.1,775.9,474.6,775.7,474.5,776z"/>
				<path class="st4" d="M479.7,761.2c-5,2.3-11.5,4.5-11.9,10.4c-0.1,0-0.2,0.1-0.3,0.2c0,0,0,0,0,0c-0.2-0.1-0.5,0.1-0.5,0.4
					c0.2,0.9,0.5,1.8,0.8,2.8c0,0,0.1,0.1,0.1,0.1c0,0.1,0,0.1,0.1,0.2c0.1,0.3,0.5,0.4,0.7,0.2c0.3,0.3,1.1-0.1,0.9-0.6l0,0
					c0,0,0.1-0.1,0.1-0.1c0.1-0.4,0.4-0.6,0.8-0.7c0.2,0,0.2-0.2,0.2-0.4c0.4,0.1,0.8,0.1,1.2,0.2c0.2,0,0.4-0.3,0.1-0.3
					c-0.7-0.1-1.4-0.2-2.1-0.3c-0.2,0-0.3,0.3-0.1,0.3c0.2,0,0.4,0.1,0.6,0.1c-0.4,0.1-0.7,0.3-0.8,0.7c-0.1-0.2-0.2-0.5-0.2-0.7
					c0-0.3-0.1-0.5-0.1-0.8c1.1,0.2,2.2,0.4,3.3,0.6c0.3,0,0.4-0.4,0.1-0.4c-1.1-0.2-2.3-0.4-3.4-0.5c0,0-0.1,0-0.1,0
					c0-0.3,0-0.6,0-0.9c1.2,0.3,2.4,0.6,3.7,0.9c0,0.1,0.1,0.1,0.1,0.1c0.2,0,0.3,0,0.5,0h0l0,0c0,0,0,0,0.1,0
					c0.3,0,0.4-0.4,0.1-0.5c-1.5-0.3-2.9-0.6-4.4-0.9c0.7-4.7,6.2-6.6,10.5-8.5c0.1,0,0.2,0,0.4-0.1c0.1-0.1,0.3-0.2,0.4-0.2
					C481.2,761.8,480.6,760.8,479.7,761.2z"/>
				<path class="st4" d="M469.5,770.3c-0.2,0-0.4,0.3-0.1,0.4c1.7,0.4,3.4,0.8,5.1,1.1c0.3,0,0.5-0.4,0.1-0.4
					C473,770.9,471.3,770.6,469.5,770.3z"/>
				<path class="st4" d="M469.6,769.2c-0.2,0-0.3,0.3-0.1,0.3c2.3,0.5,4.7,1,7.1,1.3c0.3,0,0.5-0.4,0.1-0.4
					C474.4,769.8,472,769.5,469.6,769.2z"/>
				<path class="st4" d="M470.7,768.2c-0.2,0-0.3,0.3-0.1,0.3c2.5,0.6,5.1,1.3,7.7,1.7c0.3,0,0.5-0.4,0.2-0.5
					C475.9,769.1,473.2,768.7,470.7,768.2z"/>
				<path class="st4" d="M471.2,766.8c-0.2,0-0.4,0.3-0.1,0.4c2.7,0.7,5.5,1.4,8.3,1.9c0.3,0.1,0.5-0.4,0.2-0.5
					C476.7,767.9,474,767.3,471.2,766.8z"/>
				<path class="st4" d="M472.7,765.4c-0.2,0-0.4,0.3-0.2,0.3c2.7,1,5.5,1.8,8.2,2.6c0.3,0.1,0.5-0.4,0.2-0.5
					C478.3,766.9,475.5,766.1,472.7,765.4z"/>
				<path class="st4" d="M474.9,764.7c-0.2-0.1-0.4,0.3-0.2,0.3c2.6,1.1,5.3,2.1,8,3c0.3,0.1,0.6-0.3,0.3-0.4
					C480.3,766.6,477.6,765.6,474.9,764.7z"/>
				<path class="st4" d="M477.6,762.8c-0.2-0.1-0.4,0.2-0.4,0.4c-0.3-0.1-0.6-0.2-0.9-0.3c-0.4-0.1-0.8,0.4-0.4,0.6
					c2.4,0.9,4.8,1.9,7.2,2.7c0.3,0.1,0.6-0.5,0.3-0.6c-0.8-0.3-1.6-0.6-2.4-0.9c0.9,0.3,1.9,0.6,2.9,0.9c0.3,0.1,0.6-0.4,0.3-0.5
					C482,764.2,479.8,763.5,477.6,762.8z"/>
				<path class="st4" d="M488.4,793.2c-1.4,0.1-2.8,0.2-4.2,0.3c-0.2,0-0.2,0.3,0,0.3c1.4-0.1,2.8-0.2,4.2-0.3
					C488.6,793.5,488.7,793.2,488.4,793.2z"/>
				<path class="st4" d="M494.6,791.3c-2.8,0.2-5.7,0.4-8.5,0.6c-0.2,0-0.3,0.4,0,0.3c2.8-0.2,5.7-0.3,8.5-0.5
					C494.9,791.7,494.9,791.3,494.6,791.3z"/>
				<path class="st4" d="M487.1,789.5c-0.2,0-0.4,0.3-0.1,0.4c2.7,0.2,5.4,0.5,8.1,0.7c0.3,0,0.4-0.4,0.1-0.5
					C492.5,789.8,489.8,789.7,487.1,789.5z"/>
				<path class="st4" d="M490.4,787.9c-0.2,0-0.3,0.3,0,0.3c2.6-0.1,5.3-0.1,7.9-0.3c0.3,0,0.3-0.4,0-0.4
					C495.7,787.6,493,787.8,490.4,787.9z"/>
				<path class="st4" d="M489.5,785.3c-0.2,0-0.3,0.3,0,0.3c3.6-0.1,7.1,0,10.7-0.1c0.3,0,0.4-0.5,0-0.5
					C496.6,785,493,785.2,489.5,785.3z"/>
				<path class="st4" d="M490.8,783c-0.2,0-0.3,0.4,0,0.4c3.1,0,6.2,0,9.3-0.2c0.3,0,0.4-0.5,0-0.5C497,782.7,493.9,782.8,490.8,783
					z"/>
				<path class="st4" d="M501,780.2c-3,0.2-6.1,0.5-9.1,0.9c-0.2,0-0.3,0.4,0,0.4c3-0.2,6.1-0.4,9-0.8
					C501.3,780.7,501.4,780.2,501,780.2z"/>
				<path class="st4" d="M498.8,778.6c-2.7,0.2-5.4,0.5-8.1,0.8c-0.2,0-0.3,0.3,0,0.3c2.7-0.2,5.4-0.3,8.1-0.7
					C499.1,779,499.2,778.5,498.8,778.6z"/>
				<path class="st4" d="M497.4,775.8c-2.4,0.3-4.7,0.8-7.1,1.2c-0.2,0-0.3,0.4,0,0.3c2.4-0.4,4.8-0.6,7.2-1.1
					C497.7,776.2,497.7,775.8,497.4,775.8z"/>
				<path class="st4" d="M495,773.9c-1.6,0.3-3.3,0.7-4.9,1c-0.2,0-0.2,0.4,0.1,0.3c1.6-0.3,3.3-0.6,4.9-0.9
					C495.3,774.3,495.3,773.9,495,773.9z"/>
				<path class="st4" d="M523.1,767.4c-8.7,7.9-19.9,12.9-31.5,14.5c-0.2,0-0.3,0.4,0,0.3c12-1.4,22.8-6.5,31.9-14.5
					C523.7,767.5,523.4,767.2,523.1,767.4z"/>
				<path class="st4" d="M525.5,766c-0.1,0.2,0.2,0.2,0.3,0.1C525.8,765.9,525.5,765.9,525.5,766z"/>
				<path class="st4" d="M526.6,765.5c-0.1,0.2,0.2,0.2,0.3,0.1C526.9,765.4,526.6,765.3,526.6,765.5z"/>
				<path class="st4" d="M517.8,759.8c-0.2,0-0.3,0.3-0.1,0.3c1.9,0.2,3.8,0.5,5.7,0.7c0.2,0,0.3-0.3,0.1-0.3
					C521.6,760.2,519.7,760,517.8,759.8z"/>
				<path class="st4" d="M514.1,761.1c-0.2,0-0.4,0.3-0.1,0.4c2.3,0.5,4.6,0.9,6.9,1.2c0.3,0,0.5-0.4,0.2-0.5
					C518.7,761.8,516.4,761.4,514.1,761.1z"/>
				<path class="st4" d="M519.7,759.4c-0.2,0-0.3,0.4,0,0.4c2.3,0.1,4.6,0.2,6.8,0.3c0.3,0,0.3-0.4,0-0.4
					C524.2,759.5,521.9,759.5,519.7,759.4z"/>
				<path class="st4" d="M525.2,758.4c-0.2,0-0.3,0.3-0.1,0.3c1,0.1,2.1,0.2,3.1,0.2c0.2,0,0.3-0.3,0.1-0.3
					C527.3,758.5,526.2,758.5,525.2,758.4z"/>
				<path class="st4" d="M519,756.5c-0.2,0-0.4,0.3-0.1,0.3c4.7,0.6,9.4,1.1,14.2,1.6c0.3,0,0.5-0.4,0.1-0.4
					C528.4,757.4,523.7,757,519,756.5z"/>
				<path class="st4" d="M522.5,755.3c-0.2,0-0.3,0.4-0.1,0.4c4.5,0.5,8.9,0.9,13.4,1.1c0.3,0,0.4-0.5,0.1-0.5
					C531.5,755.8,527,755.6,522.5,755.3z"/>
				<path class="st4" d="M527.7,754.2c-0.2,0-0.3,0.3-0.1,0.3c3.9,0.4,7.7,0.8,11.6,1.1c0.3,0,0.5-0.4,0.2-0.5
					C535.4,754.7,531.5,754.5,527.7,754.2z"/>
				<path class="st4" d="M530.8,753c-0.2,0-0.4,0.3-0.1,0.4c3.4,0.4,6.8,0.8,10.2,1.1c0.3,0,0.5-0.5,0.2-0.5
					C537.7,753.5,534.3,753.2,530.8,753z"/>
				<path class="st4" d="M534.7,751.2c-0.2,0-0.3,0.3-0.1,0.3c2.6,0.2,5.1,0.4,7.7,0.6c0.3,0,0.4-0.4,0.1-0.5
					C539.8,751.5,537.2,751.4,534.7,751.2z"/>
				<path class="st4" d="M516.2,749.4C516.2,749.4,516.2,749.4,516.2,749.4c-2.8-1.6-5.7-3-8.5-4.5c-0.2-0.1-0.4,0.2-0.2,0.3
					c2.6,1.5,5.3,2.9,7.9,4.3c-0.7,0.1-1.3,0.1-2,0c0,0,0-0.1,0-0.1c-2.3-1.7-4.7-3.3-7.1-4.8c-0.2-0.1-0.4,0.2-0.2,0.3
					c0.1,0.1,0.2,0.2,0.3,0.2c-0.1,0-0.3,0.1-0.2,0.3c1.8,3.8,6.2,5.5,10.2,4.6c0.4-0.1,0.3-0.7-0.1-0.6
					C516.3,749.4,516.2,749.4,516.2,749.4z M506.6,745.3c1.9,1.4,3.7,2.7,5.7,4C510,748.7,508.1,747.3,506.6,745.3z"/>
				<path class="st4" d="M508.6,744.9c-0.2-0.1-0.4,0.2-0.2,0.3c3.1,1.2,6.2,2.4,9.3,3.5c0.3,0.1,0.6-0.3,0.3-0.4
					C514.8,747.1,511.7,746,508.6,744.9z"/>
				<path class="st4" d="M511.7,745.1c-0.2-0.1-0.4,0.2-0.2,0.3c2.8,1.1,5.6,2.2,8.5,3.2c0.3,0.1,0.6-0.3,0.3-0.4
					C517.4,747.1,514.6,746.1,511.7,745.1z"/>
				<path class="st4" d="M512.8,744.6c-0.2-0.1-0.4,0.3-0.1,0.4c2.9,0.8,5.8,1.7,8.8,2.4c0.3,0.1,0.5-0.4,0.2-0.5
					C518.7,746,515.7,745.3,512.8,744.6z"/>
				<path class="st4" d="M517.2,743.8c-0.2,0-0.3,0.3-0.1,0.3c1.3,0.3,2.5,0.6,3.8,1c0.2,0.1,0.4-0.3,0.1-0.4
					C519.7,744.4,518.4,744.1,517.2,743.8z"/>
				<path class="st4" d="M507.3,739.1c-0.2,0-0.3,0.3-0.1,0.3c4.7,0.6,9.4,1.3,14.1,1.8c0.2,0,0.4-0.4,0.1-0.4
					C516.8,740.1,512.1,739.7,507.3,739.1z"/>
				<path class="st4" d="M510,736.9c-0.2,0-0.3,0.3-0.1,0.3c4.2,0.6,8.4,1.3,12.7,1.9c0.2,0,0.4-0.3,0.1-0.4
					C518.5,738.1,514.2,737.5,510,736.9z"/>
				<path class="st4" d="M514.3,735.4c-0.2,0-0.3,0.3-0.1,0.3c4.6,0.8,9.2,1.6,13.9,2.4c0.2,0,0.4-0.3,0.1-0.4
					C523.5,736.9,518.9,736.2,514.3,735.4z"/>
				<path class="st4" d="M516.6,734.1c-0.2,0-0.3,0.3-0.1,0.3c4.8,0.8,9.6,1.5,14.4,2.1c0.3,0,0.5-0.4,0.2-0.5
					C526.3,735.2,521.4,734.7,516.6,734.1z"/>
				<path class="st4" d="M519.5,732.4c-0.2,0-0.3,0.3-0.1,0.3c3.1,0.7,6.3,1.3,9.5,1.8c0.4,0.1,0.6-0.5,0.2-0.6
					C525.9,733.3,522.7,732.9,519.5,732.4z"/>
				<path class="st4" d="M532.6,731.9c-1.8-0.2-3.6-0.3-5.3-0.5c-0.3,0-0.5,0.4-0.2,0.5c1.8,0.2,3.5,0.4,5.3,0.6
					C532.8,732.6,533,731.9,532.6,731.9z"/>
				<path class="st4" d="M515.2,722c-0.2,0-0.4,0.3-0.1,0.4c3,0.4,6.1,0.9,9.1,1.2c0.3,0,0.5-0.4,0.1-0.4
					C521.3,722.6,518.2,722.3,515.2,722z"/>
				<path class="st4" d="M517.7,719.7c-0.2,0-0.3,0.3-0.1,0.3c2.4,0.6,4.8,1.4,7.2,1.9c0.3,0.1,0.5-0.4,0.2-0.5
					C522.6,720.7,520.1,720.3,517.7,719.7z"/>
				<path class="st4" d="M530.4,713.5c-0.2,0-0.4,0.3-0.1,0.4c0.8,0.2,1.5,0.4,2.3,0.5c0.3,0.1,0.5-0.5,0.2-0.5
					C532,713.8,531.2,713.7,530.4,713.5z"/>
				<path class="st4" d="M564.5,699.2c0.1,15.1-7.9,28.7-21,36.3c-0.2,0.1-0.1,0.5,0.2,0.3c13.4-6.8,22-21.7,21.6-36.7
					C565.3,698.7,564.5,698.8,564.5,699.2z"/>
				<path class="st4" d="M546.3,684.9c-0.5,9.1,2.8,18.4,9.6,24.5c0.2,0.2,0.5-0.1,0.3-0.3c-6.3-6.7-9.8-15-9.3-24.2
					C546.9,684.5,546.3,684.5,546.3,684.9z"/>
				<path class="st4" d="M550.4,643.7c-4.3,9-5.8,19.2-5.1,29.1c0,0.2,0.4,0.2,0.4,0c-0.5-8.1,0.6-16.2,3.4-23.7
					c2.8-7.6,8.5-16.6,17.9-14.8c0.8,0.2,1.3-1.1,0.4-1.3C559.7,631.2,553.5,637.2,550.4,643.7z"/>
				<path class="st4" d="M559.5,645.1c0.1,1,0.3,1.9,0.5,2.8c0.1,0.4,0.7,0.2,0.7-0.2c-0.2-0.9-0.5-1.8-0.8-2.7
					C559.8,644.8,559.5,644.9,559.5,645.1z"/>
				<path class="st4" d="M556.1,655.5c-0.2,1.9,0.4,3.9,2,5.1c0.3,0.2,0.7-0.2,0.4-0.4c-1.4-1.2-2.2-2.9-2.1-4.7
					C556.5,655.3,556.1,655.3,556.1,655.5z"/>
				<path class="st4" d="M556.2,654.4c1.3,1.9,2.5,3.8,3.7,5.6c0.2,0.3,0.7,0,0.5-0.3c-1.3-1.9-2.6-3.7-3.9-5.5
					C556.4,654,556.1,654.2,556.2,654.4z"/>
				<path class="st4" d="M556.8,651.3c1.3,2.6,2.7,5.3,4.2,7.9c0.2,0.3,0.8,0,0.6-0.3c-1.4-2.6-2.8-5.2-4.3-7.8
					C557.1,650.8,556.6,651.1,556.8,651.3z"/>
				<path class="st4" d="M557.9,649.3c1.4,2.8,2.7,5.7,4.4,8.3c0.2,0.4,0.8,0,0.6-0.4c-1.2-2.9-3-5.6-4.5-8.3
					C558.3,648.6,557.8,648.9,557.9,649.3z"/>
				<path class="st4" d="M558.1,646.7c1.4,2.9,3.2,5.9,5.1,8.6c0,0,0,0,0,0c0.3,0.4,0.6,0.9,0.9,1.3c0.3,0.4,1,0,0.7-0.4
					c-1.8-3.3-4-6.8-6.3-9.8C558.3,646.3,558,646.5,558.1,646.7z"/>
				<path class="st4" d="M559.8,644.7c1.3,2.8,2.8,5.6,4.3,8.3c-0.3,0.1-0.5,0.5-0.2,0.6c0.3,0.2,0.6,0.4,1,0.7
					c0.4,0.2,0.8-0.3,0.6-0.6c-1.6-3.1-3.4-6.2-5.3-9.2C560.1,644.2,559.7,644.5,559.8,644.7z"/>
				<path class="st4" d="M561.1,642.2c1,2.6,2.1,5.2,3.5,7.6c0.2,0.4,0.8,0,0.7-0.4c-1-2.5-2.4-5.1-3.8-7.4
					C561.4,641.9,561,642,561.1,642.2z"/>
				<path class="st4" d="M562,640.6c1.3,2.3,2.5,4.7,3.9,6.9c0.2,0.4,0.9,0.1,0.8-0.3l-0.4-1.2c-0.1-0.2-0.3-0.3-0.4-0.2
					c-1.1-1.9-2.2-3.7-3.3-5.5C562.4,640,561.8,640.3,562,640.6z"/>
				<path class="st4" d="M564,640.6c0.8,1.2,1.6,2.3,2.5,3.5c0.3,0.3,0.9,0,0.7-0.4c-0.8-1.2-1.7-2.3-2.6-3.4
					C564.4,640,563.8,640.3,564,640.6z"/>
				<path class="st4" d="M574.7,699.5c1.1,3.1,2.1,6.3,3.1,9.5c0.1,0.4,0.8,0.2,0.7-0.2c-0.2-0.7-0.4-1.4-0.5-2.1
					c0-0.2-0.2-0.2-0.3-0.2c-0.9-2.3-1.8-4.7-2.6-7.1C574.9,699.2,574.6,699.3,574.7,699.5z"/>
				<path class="st4" d="M576.1,694.6c0.9,3.6,1.9,7.3,2.9,10.9c-0.1,0.1-0.1,0.2-0.1,0.3c0.2,0.6,0.4,1.2,0.7,1.8
					c0.2,0.4,0.9,0.2,0.8-0.2c-1.2-4.3-2.5-8.6-3.7-12.9C576.5,694.2,576,694.3,576.1,694.6z"/>
				<path class="st4" d="M577.1,692.9c1.3,3.8,2.8,7.7,4.5,11.4c0.1,0.3,0.7,0,0.6-0.3c-1.4-3.8-3-7.6-4.7-11.3
					C577.4,692.6,577,692.7,577.1,692.9z"/>
				<path class="st4" d="M578.6,689.8c1.3,3.9,2.5,7.9,4.1,11.6c0.1,0.3,0.7,0,0.6-0.2c-1.1-3.9-2.7-7.7-4.2-11.5
					C579,689.3,578.5,689.5,578.6,689.8z"/>
				<path class="st4" d="M580.1,684.8c1,3.8,1.9,7.7,3.3,11.3c0.1,0.3,0.7,0.2,0.6-0.2c-0.8-3.8-2.3-7.6-3.5-11.2
					C580.3,684.5,580,684.6,580.1,684.8z"/>
				<path class="st4" d="M581.2,682.7c0.8,2.6,1.8,5.4,2.9,7.9c0.1,0.3,0.7,0,0.6-0.3c-0.9-2.6-2-5.3-3.1-7.8
					C581.5,682.4,581.2,682.6,581.2,682.7z"/>
				<path class="st4" d="M582.5,679.4c0.8,2.3,1.6,4.6,2.5,6.9c0.1,0.2,0.5,0,0.5-0.2c-0.8-2.3-1.7-4.6-2.6-6.8
					C582.7,679.1,582.4,679.2,582.5,679.4z"/>
				<path class="st4" d="M591.3,686.5c-0.1,0-0.2,0-0.2,0.1c-0.1,0.2,0.1,0.2,0.2,0.2c0.9,2.8,1.7,5.6,2.7,8.3
					c0.1,0.3,0.7,0.1,0.6-0.2c-0.9-2.8-1.9-5.6-2.9-8.5C591.5,686.4,591.4,686.5,591.3,686.5z"/>
				<path class="st4" d="M591.7,681.2c0.9,3.9,1.7,8,2.8,11.9c0.1,0.4,0.7,0.2,0.6-0.2c-0.7-4-1.8-7.9-2.7-11.9
					C592.3,680.6,591.6,680.8,591.7,681.2z"/>
				<path class="st4" d="M592,676.2c1.1,3.1,2.4,6.3,3.7,9.3c0.1,0.3,0.6,0,0.5-0.2c-1.1-3.1-2.4-6.3-3.8-9.3
					C592.3,675.8,591.9,676,592,676.2z"/>
				<path class="st4" d="M592,669.3c1.5,3.7,3.1,7.3,4.7,10.9c0.2,0.3,0.7,0,0.5-0.3c-1.5-3.7-3.1-7.3-4.8-10.9
					C592.4,668.6,591.9,668.9,592,669.3z"/>
				<path class="st4" d="M592.2,663.3c1.7,4.5,3.6,9,5.5,13.4c0.1,0.3,0.6,0,0.5-0.2c-1.8-4.5-3.7-8.9-5.7-13.3
					C592.5,663,592.1,663.1,592.2,663.3z"/>
				<path class="st4" d="M591.4,656.1c2,4.8,3.9,9.6,6.1,14.3c0.2,0.3,0.8,0,0.6-0.3c-1.8-4.9-4-9.6-6-14.4
					C591.9,655.3,591.2,655.7,591.4,656.1z"/>
				<path class="st4" d="M590.4,652.3c2.6,4.3,5.2,8.6,7.9,12.8c0.2,0.4,0.9,0,0.7-0.4c-2.5-4.3-5.2-8.6-7.9-12.8
					C590.9,651.5,590.2,651.9,590.4,652.3z"/>
				<path class="st4" d="M592.8,649c2,3.7,4.2,7.3,6.4,10.8c0.2,0.3,0.7,0,0.5-0.3c-2.1-3.6-4.3-7.2-6.6-10.7
					C593,648.6,592.7,648.8,592.8,649z"/>
				<path class="st4" d="M590.6,653.5c1.1,8.2,1.5,16.4,0.7,24.7c-0.8,8.3-2.9,16.2-5.2,24.2c-0.1,0.3,0.3,0.3,0.4,0.1
					c6.5-15.1,8-33.2,5.5-49.3C591.9,652.3,590.5,652.7,590.6,653.5z"/>
				<path class="st4" d="M486.6,745.2c-7.6,6.2-15.1,12.4-22.7,18.6c-0.2,0.2,0.1,0.4,0.3,0.3c7.6-6.2,15.2-12.3,22.8-18.5
					C487.3,745.3,486.8,744.9,486.6,745.2z"/>
				<path class="st4" d="M515.8,735.5c-8.3,2.4-16.6,5-24.8,7.5c-0.2,0.1-0.2,0.4,0.1,0.3c8.3-2.4,16.6-4.8,24.9-7.2
					C516.3,736,516.2,735.4,515.8,735.5z"/>
				<path class="st4" d="M448.8,762.8c-19.5-1.2-39.6,2-58.2,8.1c-0.2,0.1-0.2,0.4,0.1,0.3c19-5.6,38.3-7.7,58-7.4
					C449.4,763.8,449.5,762.8,448.8,762.8z"/>
				<path class="st4" d="M580.3,629.5c-0.4,6-1.1,12-2.1,18c-0.9,5.7-1.7,19.9-10.2,18.8c-0.2,0-0.3,0.3-0.1,0.3
					c6.9,0.9,8.7-6.8,9.8-12c0.7-3.1,1.2-6.3,1.7-9.5c2.1,1.7,4,3.4,6.2,5c0.2,0.2,0.6-0.2,0.4-0.4c-2.1-1.8-4.3-3.4-6.5-5.1
					c0.1-0.7,0.2-1.5,0.3-2.2c1.7,1.3,3.4,2.7,5.1,3.9c0.2,0.1,0.5-0.1,0.3-0.3c-1.7-1.4-3.6-2.6-5.4-4c0.6-4.2,1-8.4,1.2-12.7
					C581.1,629,580.3,629.1,580.3,629.5z"/>
				<path class="st4" d="M581.2,639.5c0.7,0.7,1.3,1.4,2,2.1c0.1,0.2,0.4-0.1,0.3-0.3c-0.7-0.7-1.3-1.4-2-2.1
					C581.3,639.1,581,639.3,581.2,639.5z"/>
				<path class="st4" d="M580.3,634.3c2.9,2.8,5.8,5.5,8.8,8.1c0.2,0.2,0.5-0.1,0.3-0.3c-2.8-2.8-5.8-5.4-8.8-8.1
					C580.5,633.8,580.2,634.1,580.3,634.3z"/>
				<path class="st4" d="M581,630.5c2.8,2.8,5.8,5.5,8.7,8.1c0.3,0.2,0.7-0.2,0.4-0.4c-2.9-2.7-5.8-5.5-8.8-8
					C581.1,630,580.8,630.3,581,630.5z"/>
				<path class="st4" d="M581,624.9c3.8,3.5,7.5,7,11.3,10.4c0.2,0.2,0.6-0.1,0.4-0.4c-3.8-3.5-7.6-6.9-11.4-10.4
					C581.1,624.5,580.8,624.8,581,624.9z"/>
				<path class="st4" d="M580.4,621.1c3.9,3.6,7.9,7.2,11.9,10.7c0.2,0.2,0.7-0.2,0.4-0.4c-3.9-3.6-8-7.1-12-10.6
					C580.5,620.6,580.2,620.9,580.4,621.1z"/>
				<path class="st4" d="M579.8,617.2c5.4,4.5,10.9,8.9,16.5,13.2c0.3,0.2,0.8-0.2,0.5-0.5c-5.4-4.5-11-8.8-16.6-13.1
					C579.9,616.7,579.5,617,579.8,617.2z"/>
				<path class="st4" d="M583.7,617.5c4.1,3.2,8.2,6.4,12.4,9.4c0.2,0.2,0.6-0.2,0.4-0.4c-4.1-3.2-8.3-6.2-12.5-9.3
					C583.8,617.1,583.6,617.4,583.7,617.5z"/>
				<path class="st4" d="M586.5,615.8c3.5,2.3,7,4.6,10.6,6.7c0.3,0.2,0.6-0.3,0.3-0.5c-3.5-2.3-7.1-4.5-10.7-6.7
					C586.5,615.2,586.2,615.6,586.5,615.8z"/>
				<path class="st4" d="M588.7,615.2c1.6,1.2,3.3,2.3,5,3.3c0.3,0.2,0.7-0.3,0.3-0.5c-1.7-1.1-3.4-2.2-5.1-3.1
					C588.8,614.8,588.5,615,588.7,615.2z"/>
				<path class="st4" d="M556.6,608.9c0.3,0.2,0.6,0.4,0.9,0.5c-0.1,0.6-0.2,1.2-0.3,1.7c-0.6-0.3-1.1-0.6-1.7-0.9
					c-0.2-0.1-0.4,0.2-0.2,0.3c0.6,0.4,1.2,0.7,1.9,1.1c-0.1,0.6-0.2,1.2-0.3,1.8c-0.3-0.2-0.6-0.4-1-0.6c-0.2-0.1-0.5,0.2-0.2,0.4
					c0.4,0.2,0.8,0.5,1.1,0.7c-0.1,1.2-0.3,2.4-0.4,3.6c-0.3-0.1-0.5-0.2-0.8-0.3c-0.2-0.1-0.4,0.2-0.2,0.3c0.3,0.2,0.6,0.3,0.9,0.5
					c-0.1,1-0.2,2.1-0.3,3.1c0,0.2,0.3,0.2,0.3,0c0.2-0.9,0.3-1.9,0.5-2.8c2,1,4.1,2,6.2,2.8c0.3,0.1,0.6-0.3,0.3-0.5
					c-2.1-1.1-4.2-2-6.4-2.9c0.2-1.1,0.4-2.3,0.5-3.4c2.4,1.5,4.7,3,7.2,4.3c0.3,0.2,0.6-0.3,0.3-0.5c-2.4-1.6-4.9-3-7.4-4.4
					c0.1-0.6,0.1-1.2,0.2-1.9c2.5,1.5,5.1,3,7.7,4.4c0.3,0.2,0.6-0.3,0.3-0.5c-2.6-1.6-5.3-3-7.9-4.5c0.1-0.6,0.1-1.2,0.2-1.7
					c2.9,1.7,5.8,3.5,8.7,5c0.3,0.2,0.7-0.3,0.3-0.5c-3.3-2.1-6.8-4-10.3-5.8C556.6,608.3,556.3,608.7,556.6,608.9z"/>
				<path class="st4" d="M558.1,606.5c-0.2-0.1-0.4,0.3-0.2,0.3c2.4,1,4.9,2,7.3,2.8c0.3,0.1,0.6-0.4,0.3-0.5
					C563.1,608.1,560.6,607.2,558.1,606.5z"/>
				<path class="st4" d="M564.5,607.8c0.3,0.4,0.7,0.7,1,1.1c0.1,0.2,0.4-0.1,0.3-0.3c-0.3-0.4-0.7-0.7-1-1.1
					C564.6,607.4,564.3,607.6,564.5,607.8z"/>
				<path class="st4" d="M574.5,507.6c-7.6,6.6-7.5,17.4-7.4,26.6c0,0.2,0.4,0.2,0.4,0c0-7.8,0.2-16.3,5-22.8c5-6.8,14.3-8.5,20-1.7
					c0.4,0.4,1.2-0.2,0.9-0.7C589.5,502.2,579.7,503.1,574.5,507.6z"/>
				<path class="st4" d="M590.6,502.7c1.2,1.6,2.5,3.2,3.8,4.8c0.1,0.2,0.4,0,0.3-0.2c-1.3-1.6-2.5-3.2-3.8-4.8
					C590.8,502.3,590.4,502.5,590.6,502.7z"/>
				<path class="st4" d="M588.6,500.6c1.7,2.9,3.3,5.9,5,8.8c0.2,0.3,0.6,0,0.4-0.3c-1.7-2.9-3.4-5.8-5.1-8.7
					C588.8,500.2,588.5,500.4,588.6,500.6z"/>
				<path class="st4" d="M586.3,499.6c1.7,3.4,3.5,6.8,5.2,10.2c0.1,0.2,0.5,0,0.4-0.2c-1.7-3.4-3.5-6.8-5.3-10.2
					C586.5,499.2,586.2,499.4,586.3,499.6z"/>
				<path class="st4" d="M582.9,499.2c2.1,4.3,4.1,8.6,6.3,12.7c0.1,0.3,0.6,0,0.4-0.3c-2-4.3-4.2-8.5-6.5-12.7
					C583.1,498.8,582.8,499,582.9,499.2z"/>
				<path class="st4" d="M582.9,504.7c1.9,2.8,3.8,5.6,5.8,8.4c0.2,0.2,0.6,0,0.5-0.3c-1.9-2.8-4-5.6-6-8.3
					C583.1,504.4,582.8,504.5,582.9,504.7z"/>
				<path class="st4" d="M580.1,505c1.8,2.7,3.5,5.5,5.3,8.1c0.2,0.2,0.6,0,0.4-0.2c-1.7-2.7-3.6-5.4-5.4-8.1
					C580.3,504.6,580,504.8,580.1,505z"/>
				<path class="st4" d="M579.3,506.9c1.5,2.7,3,5.3,4.7,8c0.2,0.3,0.6,0,0.5-0.3c-1.5-2.7-3.1-5.3-4.7-7.9
					C579.6,506.4,579.2,506.7,579.3,506.9z"/>
				<path class="st4" d="M577.4,508.8c1.2,2.3,2.4,4.6,3.7,6.9c0.1,0.2,0.6,0,0.4-0.3c-1.2-2.3-2.5-4.6-3.8-6.8
					C577.6,508.4,577.3,508.6,577.4,508.8z"/>
				<path class="st4" d="M590.4,540.6c0.7,6,1.5,12.1,2.3,18.1c0,0.3,0.4,0.1,0.4-0.1c-0.6-6.1-1.4-12.1-2.1-18.2
					C591,540.1,590.4,540.3,590.4,540.6z"/>
				<path class="st4" d="M590.4,539.2c2.9,3.4,5.7,6.9,8.7,10.2c0.2,0.2,0.6-0.1,0.4-0.4c-2.8-3.4-5.8-6.7-8.8-10.1
					C590.5,538.8,590.2,539,590.4,539.2z"/>
				<path class="st4" d="M589.5,534c3.7,4.2,7.5,8.4,11.3,12.5c0.2,0.2,0.6-0.1,0.4-0.3c-3.7-4.2-7.6-8.3-11.4-12.4
					C589.6,533.6,589.3,533.9,589.5,534z"/>
				<path class="st4" d="M590.2,532.1c3.5,4,7.1,7.9,10.8,11.7c0.2,0.2,0.6-0.1,0.4-0.4c-3.6-3.9-7.3-7.8-11-11.6
					C590.4,531.7,590.1,532,590.2,532.1z"/>
				<path class="st4" d="M592.3,530.6c2.8,3.4,5.7,6.9,8.6,10.3c0.2,0.2,0.6-0.1,0.4-0.4c-2.9-3.4-5.8-6.8-8.7-10.1
					C592.4,530.2,592.1,530.5,592.3,530.6z"/>
				<path class="st4" d="M595.3,531.5c2.4,1.6,4.8,3.2,7.2,4.8c0.3,0.2,0.6-0.3,0.3-0.5c-2.4-1.6-4.8-3.1-7.3-4.7
					C595.3,530.9,595,531.3,595.3,531.5z"/>
				<path class="st4" d="M597.8,493.4c1.3,6.3,2.9,13.1,1,19.5c-1.6,5.6-6.2,10.7-12.3,11c-0.2,0-0.3,0.4,0,0.4
					c5.5-0.2,9.9-3.8,12.2-8.7c3.3-7,1.5-15.1-0.1-22.3C598.4,492.7,597.7,493,597.8,493.4z"/>
				<path class="st4" d="M588.1,463.3c-0.3-0.2-0.8,0.3-0.5,0.6c1.5,1.1,2.8,2.4,4,3.7c0,0.1-0.1,0.2,0,0.2c0.2,0.2,0.5,0.4,0.7,0.5
					c1.6,1.8,3,3.7,4.1,5.7c-0.3-0.2-0.7,0.2-0.4,0.4c0.4,0.3,0.7,0.5,1.1,0.8c2.3,4.7,3.3,10,2.9,15.7c0,0.2,0.3,0.2,0.4,0
					c0.8-4.8,0.1-9.9-1.7-14.5c1.9,1.4,3.8,2.7,5.8,3.9c0.3,0.2,0.6-0.3,0.4-0.5c-2.1-1.6-4.4-3.2-6.6-4.7c-0.7-1.5-1.5-2.9-2.4-4.3
					c2.5,1.8,4.9,3.6,7.5,5.3c0.2,0.2,0.6-0.2,0.4-0.4c-2.9-2.3-6-4.5-9.1-6.7C592.6,466.9,590.5,464.9,588.1,463.3z"/>
				<path class="st4" d="M590.5,463.7c4,3.4,8.1,6.8,12.3,9.9c0.3,0.2,0.7-0.2,0.4-0.4c-4-3.4-8.2-6.7-12.4-9.8
					C590.6,463.3,590.3,463.6,590.5,463.7z"/>
				<path class="st4" d="M590.1,462.5c3.7,2.9,7.5,5.8,11.4,8.4c0.3,0.2,0.6-0.3,0.4-0.5c-3.7-2.9-7.6-5.7-11.5-8.3
					C590.2,462,590,462.4,590.1,462.5z"/>
				<path class="st4" d="M591.1,460c3.4,3,7,5.9,10.5,8.8c0.3,0.3,0.8-0.2,0.5-0.5c-3.5-2.9-7.1-5.8-10.7-8.6
					C591.2,459.6,590.9,459.9,591.1,460z"/>
				<path class="st4" d="M592.8,459.2c2.8,2.3,5.6,4.6,8.6,6.7c0.3,0.2,0.8-0.2,0.5-0.5c-2.8-2.3-5.8-4.4-8.8-6.4
					C592.9,458.8,592.6,459,592.8,459.2z"/>
				<path class="st4" d="M562,476.3c0.9,1.3,1.8,2.6,2.6,3.9c-0.2,0-0.3,0.2-0.3,0.4c0.1,0.6,0.1,1.1,0.2,1.7
					c-0.1-0.2-0.2-0.3-0.3-0.5c-0.1-0.2-0.5,0-0.4,0.2c0.3,0.4,0.5,0.8,0.8,1.2c0.4,3.7,0.9,7.4,1.4,11.1c-0.3-0.2-0.5-0.4-0.8-0.6
					c-0.1-0.1-0.4,0.1-0.2,0.2c0.4,0.3,0.7,0.7,1.1,1c0.2,1.7,0.5,3.4,0.8,5c0,0.3,0.4,0.1,0.4-0.1c-0.1-1.4-0.3-2.8-0.4-4.2
					c1.6,1.4,3.2,2.8,4.9,4.1c0.3,0.2,0.7-0.2,0.4-0.4c-1.7-1.5-3.5-3.1-5.4-4.5c-0.3-2.4-0.6-4.9-0.9-7.3c1.9,2.8,3.7,5.8,5.8,8.5
					c0.2,0.2,0.6,0,0.4-0.2c-1.8-2.9-3.9-5.7-5.9-8.5c-0.1-0.1-0.3-0.1-0.3,0.1c-0.1-1-0.3-2-0.4-3c2.1,3.1,4.1,6.2,6.3,9.2
					c0.2,0.3,0.7,0,0.5-0.3c-2.2-3.4-4.6-6.6-7-9.9c-0.1-0.9-0.2-1.8-0.4-2.7c1.6,2.4,3.3,4.8,5,7.2c0.2,0.2,0.6,0,0.4-0.2
					c-2.6-3.9-5.3-7.7-8-11.6C562.3,475.9,561.9,476.1,562,476.3z"/>
				<path class="st4" d="M561.9,474.1c2.8,4,5.5,8.1,8.5,12c0.2,0.2,0.5,0,0.4-0.2c-2.7-4.1-5.7-8-8.5-12
					C562.1,473.7,561.8,473.9,561.9,474.1z"/>
				<path class="st4" d="M562.4,470.9c3,4.1,6,8.3,9.2,12.3c0.2,0.2,0.7,0,0.5-0.3c-3-4.1-6.1-8.2-9.3-12.2
					C562.6,470.5,562.2,470.7,562.4,470.9z"/>
				<path class="st4" d="M565.9,472.2c0.7,1.6,1.5,3.3,2.2,4.9c0.1,0.2,0.5,0,0.4-0.2c-0.7-1.6-1.5-3.2-2.3-4.9
					C566.1,471.8,565.8,472,565.9,472.2z"/>
				<path class="st4" d="M578.4,461.5c-0.4,6.2,2.4,12,7.4,15.6c0.2,0.1,0.4-0.1,0.3-0.3c-4.8-3.6-7.5-9.4-7.1-15.4
					C579,461.1,578.4,461.2,578.4,461.5z"/>
				<path class="st4" d="M610,420.3c-9.4,9.4-18,19.9-26.9,29.8c-0.2,0.2,0.1,0.4,0.3,0.2c7.3-7.9,14.6-15.8,21.9-23.7
					c3.2-3.5,6.4-7.4,10.5-9.9c4.8-2.9,11.4-3.3,15.2,1.6c0.3,0.4,1.1,0,0.8-0.5C626.2,409.5,615.5,414.8,610,420.3z"/>
				<path class="st4" d="M616.6,452.2c-2.8,3.1-5.7,6.2-8.4,9.3c-0.4-1.5-0.8-3.1-1.2-4.6c-0.1-0.4-0.8-0.2-0.7,0.2
					c0.4,1.7,0.8,3.5,1.1,5.2c-0.9,1.1-1.9,2.1-2.8,3.2c-0.2,0.2,0.1,0.4,0.2,0.2c0.9-0.9,1.8-1.9,2.7-2.9c0.7,3.1,1.4,6.2,2.5,9.1
					c0.1,0.2,0.3,0.1,0.3-0.1c-0.4-3.3-1.2-6.6-2-9.9c2.9-3.1,5.8-6.3,8.7-9.5C617.2,452.2,616.8,451.9,616.6,452.2z"/>
				<path class="st4" d="M603.3,469.5c-0.2-0.1-0.4,0.3-0.2,0.4c1.9,0.8,3.8,1.6,5.7,2.2c0.2,0.1,0.5-0.3,0.2-0.5
					C607.2,470.7,605.2,470.1,603.3,469.5z"/>
				<path class="st4" d="M602.2,467.9c1.3,0.7,2.6,1.3,3.9,1.9c-0.1,0.2-0.1,0.4,0.1,0.5c0.8,0.2,1.6,0.5,2.4,0.7
					c0.3,0.1,0.7-0.4,0.3-0.6c-2.1-1-4.3-2-6.5-2.9C602.2,467.4,601.9,467.8,602.2,467.9z"/>
				<path class="st4" d="M603,466.2c1.4,0.9,2.9,1.7,4.4,2.5c-0.1,0.1-0.1,0.3,0.1,0.4c0.7,0.3,1.4,0.5,2.1,0.7
					c0.4,0.1,0.8-0.4,0.4-0.6c-2.2-1.1-4.4-2.4-6.7-3.3C603,465.8,602.8,466.1,603,466.2z"/>
				<path class="st4" d="M600.1,456.6c-0.2-0.1-0.4,0.2-0.2,0.3c2.6,1.9,5.3,3.8,8,5.6c-2.6-1.4-5.1-2.8-7.8-4
					c-0.2-0.1-0.4,0.2-0.2,0.3c2.1,1.3,4.3,2.5,6.5,3.7c-0.2,0-0.4,0-0.6,0c0,0,0,0,0,0c-1.7-1.1-3.4-2.2-5.1-3.1
					c-0.2-0.1-0.4,0.2-0.2,0.3c0.4,0.3,0.9,0.6,1.4,1c-0.2-0.1-0.4,0.2-0.2,0.3c2,1.5,4.1,3,6.2,4.5c-0.2,0-0.3,0-0.5-0.1
					c-1.9-1.3-3.8-2.6-5.7-3.9c-0.2-0.1-0.4,0.2-0.3,0.3c0.4,0.3,0.8,0.6,1.2,0.9c-0.2,0.1-0.3,0.2-0.1,0.4c2.2,1.9,4.5,3.9,6.8,5.6
					c0.3,0.2,0.7-0.2,0.4-0.4c-1.1-1-2.2-2-3.4-2.9c0.2,0.1,0.4,0.3,0.6,0.4c0,0.1,0.1,0.1,0.2,0.2c0,0,0,0,0,0
					c0.4,0.3,0.8,0.6,1.2,0.9c0.2,0.2,0.6-0.3,0.4-0.5c-0.1-0.1-0.2-0.1-0.2-0.2c0.2,0,0.4,0.1,0.6,0.1c0.3,0,0.7-0.4,0.4-0.6
					c-0.3-0.2-0.6-0.4-0.9-0.6c0,0,0,0,0,0c0.4,0.2,0.8-0.4,0.4-0.6c-0.7-0.4-1.4-0.9-2.1-1.4c0.3,0,0.7,0,1,0
					c0.3,0,0.5-0.4,0.2-0.6c0.2,0.1,0.4,0.3,0.7,0.4c0.3,0.2,0.6-0.3,0.4-0.5c0,0,0,0,0,0C606.3,460.4,603.2,458.4,600.1,456.6z"/>
				<path class="st4" d="M601.3,457.1c1.3,0.8,2.6,1.6,3.9,2.3c0,0,0,0,0,0.1c0.9,0.5,1.7,1,2.6,1.5c0.4,0.2,0.8-0.4,0.4-0.6
					c-2.2-1.2-4.4-2.5-6.7-3.6C601.3,456.7,601.2,457,601.3,457.1z"/>
				<path class="st4" d="M601.8,456c-0.2,0-0.4,0.3-0.1,0.3c1,0.2,2.1,0.4,3.1,0.5c0.3,0,0.4-0.4,0.1-0.5
					C603.9,456.1,602.8,456,601.8,456z"/>
				<path class="st4" d="M607.5,457.6c-0.1,0.2,0.3,0.3,0.3,0.1C607.9,457.4,607.5,457.4,607.5,457.6z"/>
				<path class="st4" d="M617.5,441.7c0.2,0.9,0.5,1.9,0.8,2.8c-0.3-0.9-0.5-1.8-0.8-2.7c-0.1-0.4-0.7-0.2-0.6,0.2
					c0.5,1.6,1,3.2,1.5,4.8c-0.1-0.1-0.2-0.2-0.3-0.3c-0.4-1.5-0.9-3-1.3-4.5c-0.1-0.3-0.6-0.1-0.5,0.2c0.1,0.2,0.1,0.4,0.2,0.6
					c-0.2,0-0.5,0.1-0.4,0.4c0.1,0.4,0.2,0.8,0.3,1.3c-0.2-0.1-0.5,0.1-0.4,0.3c0.3,0.5,0.6,0.9,0.9,1.3c0.1,0.2,0.1,0.3,0.2,0.5
					c0.1,0.1,0.2,0.2,0.3,0.1c0.1,0.1,0.3,0.3,0.4,0.4c0,0.1,0,0.1,0.1,0.2c0,0.1,0.2,0.1,0.3,0.1c0,0,0,0,0,0c0,0-0.1,0-0.1,0.1
					c-0.1,0.2,0.2,0.2,0.3,0.1c0.2,0.2,0.4,0.3,0.5,0.4c0,0.1,0.1,0.3,0.1,0.4c0.1,0.2,0.3,0.2,0.5,0c0.1,0,0.1,0.1,0.2,0.1
					c0,0.2,0.1,0.3,0.1,0.5c0.1,0.3,0.5,0.2,0.6,0c0.5,0.3,1.1,0.6,1.6,0.8c0,0.1,0.1,0.2,0.1,0.3c0.1,0.3,0.5,0.2,0.6-0.1
					c0.2,0.1,0.3,0.1,0.5,0.1c0.1,0.2,0.1,0.3,0.2,0.5c0.1,0.4,0.7,0.2,0.6-0.2c0,0,0-0.1,0-0.1c1.3,0.3,2.8,0.4,4.2,0.3
					c0.2,0,0.3-0.4,0-0.4c-1.5,0.1-3-0.1-4.4-0.5c-0.6-2.1-1.2-4.2-1.9-6.3c0.2-0.1,0.4-0.5,0.1-0.6c-0.1-0.1-0.3-0.1-0.4-0.2
					c-0.3-0.1-0.7,0.1-0.6,0.4c0.6,2.1,1.3,4.3,2,6.4c-0.1,0-0.3-0.1-0.4-0.1c-0.6-2.3-1.2-4.7-2-6.9c-0.1-0.4-0.8-0.2-0.7,0.2
					c0.5,2.2,1.2,4.3,1.9,6.4c-0.1-0.1-0.3-0.1-0.4-0.2c0-0.1,0-0.1,0-0.2c-1.1-2.2-1.4-4.3-1.9-6.6c-0.1-0.3-0.6-0.2-0.6,0.1
					c0,0.4,0,0.8,0,1.2c-0.2-0.6-0.4-1.2-0.5-1.8C618.1,441,617.4,441.3,617.5,441.7z"/>
				<path class="st4" d="M622.6,443c-0.2-0.2-0.6,0-0.5,0.3c0.5,2.1,1.2,4.2,1.9,6.3c0.1,0.3,0.6,0.2,0.5-0.2
					c-0.1-0.4-0.2-0.8-0.3-1.2c0.2,0.6,0.4,1.3,0.6,1.9c0.1,0.3,0.6,0.2,0.6-0.1c0-0.1,0-0.3,0-0.4c0-0.1-0.1-0.2-0.2-0.2
					c-0.6-2.2-1.2-4.3-1.9-6.5C623.1,442.6,622.6,442.7,622.6,443z"/>
				<path class="st4" d="M623.7,443.5c0.5,2,1,4,1.7,6l0,0c0,0.2,0.1,0.3,0.1,0.5c0.1,0.3,0.6,0.2,0.5-0.2c-0.5-2.2-1.1-4.3-1.7-6.5
					C624.2,442.9,623.6,443.1,623.7,443.5z"/>
				<path class="st4" d="M625.4,446.5c0.3,1,0.6,2,0.9,3c0.1,0.3,0.6,0.1,0.5-0.1c-0.4-1-0.7-2-1.1-3
					C625.7,446.2,625.4,446.3,625.4,446.5z"/>
				<path class="st4" d="M625.6,444.2c-0.1-0.2-0.4-0.1-0.4,0.1c0,0.1-0.1,0.2-0.1,0.3c-0.1,0.2,0.1,0.3,0.3,0.2
					c0.2,0.7,0.5,1.4,0.8,2.1c0.4,0.9,0.7,1.8,1.1,2.7c0.2,0.3,0.7,0.1,0.6-0.3c-0.1-0.3-0.2-0.5-0.3-0.7c0.1,0.2,0.2,0.4,0.3,0.6
					c0.2,0.4,0.8,0,0.7-0.4c-0.6-1.4-1.3-2.7-2.1-4c-0.1-0.2-0.5,0-0.4,0.2c0.1,0.3,0.2,0.6,0.3,0.9
					C626.1,445.3,625.9,444.7,625.6,444.2z"/>
				<path class="st4" d="M627.8,445.8c0.2,0.7,0.6,1.3,1,1.9c0.2,0.3,0.8,0,0.6-0.4c-0.4-0.6-0.8-1.2-1.3-1.8
					C628,445.5,627.7,445.6,627.8,445.8z"/>
				<path class="st4" d="M620.1,419.1c1.4,1.8,3.1,3.5,4.7,5.2c0.2,0.2,0.6-0.1,0.4-0.4c-1.5-1.7-3.1-3.5-4.8-5
					C620.3,418.7,620,418.9,620.1,419.1z"/>
				<path class="st4" d="M621.6,417.1c1.7,2.2,3.4,4.5,5.1,6.7c0.2,0.2,0.6,0,0.4-0.2c-1.7-2.3-3.4-4.5-5.1-6.7
					C621.8,416.6,621.4,416.9,621.6,417.1z"/>
				<path class="st4" d="M622.3,417c2.4,2.6,4.7,5.3,7.2,7.8c0.2,0.2,0.6-0.1,0.4-0.4c-2.3-2.7-4.8-5.2-7.2-7.8
					C622.5,416.4,622.1,416.8,622.3,417z"/>
				<path class="st4" d="M625.2,417c2.1,2.2,4.1,4.4,6.2,6.5c0.2,0.2,0.7-0.2,0.4-0.4c-2-2.2-4.2-4.3-6.3-6.4
					C625.3,416.4,624.9,416.8,625.2,417z"/>
				<path class="st4" d="M627.3,416.7c1.9,2.4,3.7,4.8,5.8,7c0.2,0.2,0.6-0.1,0.5-0.3c-1.8-2.4-3.8-4.7-5.8-6.9
					C627.5,416.2,627.1,416.5,627.3,416.7z"/>
				<path class="st4" d="M628.8,414.5c2,3,4,5.9,6,8.8c0.2,0.3,0.8,0,0.6-0.3c-2-3-4.1-5.9-6.1-8.8
					C629.1,414,628.6,414.2,628.8,414.5z"/>
				<path class="st4" d="M629.2,411.8c2.5,4.2,4.9,8.5,7.4,12.7c0.2,0.3,0.7,0,0.5-0.3c-2.5-4.2-5-8.5-7.5-12.7
					C629.5,411.3,629,411.5,629.2,411.8z"/>
				<path class="st4" d="M630.2,409.8c2.6,4.9,5.1,9.8,7.7,14.6c0.2,0.3,0.7,0,0.5-0.3c-2.6-4.9-5.2-9.7-7.8-14.6
					C630.5,409.3,630.1,409.5,630.2,409.8z"/>
				<path class="st4" d="M632.9,411.1c2.1,4.7,4.1,9.4,6.3,14c0.2,0.3,0.7,0,0.6-0.3c-2-4.7-4.2-9.3-6.4-14
					C633.2,410.6,632.7,410.8,632.9,411.1z"/>
				<path class="st4" d="M634,410c1.6,3.9,3.6,7.6,5.4,11.4c0.2,0.3,0.7,0,0.6-0.3c-1.8-3.8-3.5-7.7-5.6-11.3
					C634.3,409.6,633.9,409.8,634,410z"/>
				<path class="st4" d="M635.3,407.9c1.3,2.9,2.9,5.8,4.4,8.6c0.2,0.3,0.6,0,0.5-0.3c-1.4-2.9-2.9-5.8-4.5-8.5
					C635.6,407.5,635.2,407.7,635.3,407.9z"/>
				<path class="st4" d="M624.1,398c-0.2,0.1,0,0.3,0.1,0.2c2.3-1.1,4.8-1.1,7.1,0.1c0.3,0.2,0.6-0.3,0.3-0.5
					C629.3,396.5,626.4,396.5,624.1,398z"/>
				<path class="st4" d="M624.2,398.7c1.2,1.4,2.3,2.9,3.6,4.2c0.2,0.2,0.6-0.1,0.4-0.3c-1.2-1.4-2.5-2.8-3.8-4.1
					C624.4,398.2,624.1,398.5,624.2,398.7z"/>
				<path class="st4" d="M625.7,397.5c1.1,1.8,2.3,3.7,3.5,5.5c0.2,0.3,0.8,0,0.6-0.3c-1.2-1.8-2.4-3.6-3.7-5.4
					C626,397,625.6,397.2,625.7,397.5z"/>
				<path class="st4" d="M627,397.1c1.6,2.3,3.3,4.7,5.1,6.8c0.2,0.2,0.6-0.1,0.5-0.4c-1.6-2.3-3.4-4.6-5.2-6.7
					C627.2,396.7,626.9,396.9,627,397.1z"/>
				<path class="st4" d="M629.6,397.2c1.6,2.6,3.2,5.3,5,7.8c0.2,0.3,0.7,0,0.5-0.3c-1.5-2.7-3.4-5.2-5.1-7.7
					C629.8,396.8,629.4,397,629.6,397.2z"/>
				<path class="st4" d="M632.3,399.2c1.4,2.1,2.8,4.1,4.3,6.1c0.2,0.3,0.7,0,0.5-0.3c-1.4-2.1-2.9-4.1-4.4-6.1
					C632.5,398.8,632.1,399,632.3,399.2z"/>
				<path class="st4" d="M634.4,400c1.5,2.4,3,4.9,4.5,7.3c0.2,0.3,0.7,0,0.5-0.3c-1.5-2.4-3.1-4.8-4.7-7.2
					C634.7,399.5,634.3,399.8,634.4,400z"/>
				<path class="st4" d="M636.3,400.4c1,1.7,1.9,3.4,3,4.9c0.2,0.3,0.7,0,0.5-0.3c-0.9-1.7-2.1-3.3-3.1-4.9
					C636.6,399.9,636.2,400.2,636.3,400.4z"/>
				<path class="st4" d="M638.5,400.1c1,1.6,2,3.1,3.1,4.6c0.2,0.3,0.7,0,0.5-0.3c-1-1.5-2.1-3.1-3.2-4.6
					C638.8,399.7,638.4,399.9,638.5,400.1z"/>
				<path class="st4" d="M654.9,379.6c-6.6,5.8-12.5,12.4-18.7,18.6c-0.2,0.2,0.1,0.5,0.3,0.3c6.4-6,13.1-11.9,19-18.3
					C656,379.7,655.3,379.2,654.9,379.6z"/>
				<path class="st4" d="M681.2,387c-5.3,11.9-11.7,22.9-20.7,32.4c-8.2,8.7-20.1,16.5-32.4,11.7c-0.2-0.1-0.4,0.2-0.2,0.3
					c11.3,4.5,22.8-1.3,31-9.1c10.1-9.6,18.5-22.1,23.3-35.1C682.4,386.6,681.4,386.5,681.2,387z"/>
				<path class="st4" d="M673.9,370.7c-0.6-0.2-1,0.8-0.3,1c5.1,1.4,8.5,6.6,7.6,11.8c0,0.2,0.3,0.2,0.3,0
					C682.7,378,679.4,372.4,673.9,370.7z"/>
				<path class="st4" d="M664.8,370.4c-3.6,6.7-2.5,14.7,2.6,20.4c0.1,0.2,0.4-0.1,0.3-0.3c-4.9-5.4-5.7-13.5-2.4-19.9
					C665.5,370.3,665,370.1,664.8,370.4z"/>
				<path class="st4" d="M701.8,323.7c-6.7,5.5-13,11.5-18.7,18c-0.2,0.2,0.1,0.4,0.2,0.2c4.5-4.9,9.2-9.6,14.3-13.9
					c4.9-4.2,12-11.3,18.9-7.5c0.5,0.3,1.1-0.5,0.6-0.9C711.6,316.4,706.1,320.2,701.8,323.7z"/>
				<path class="st4" d="M675.2,372c2.9,1.9,6,3.6,9.1,5.3c0.3,0.1,0.6-0.3,0.3-0.5c-3-1.8-6.1-3.6-9.2-5.2
					C675.2,371.6,675,371.9,675.2,372z"/>
				<path class="st4" d="M675,370.2c3.6,2,7.1,4,10.7,5.8c0.2,0.1,0.5-0.2,0.2-0.4c-3.6-2-7.2-3.9-10.8-5.8
					C675,369.8,674.8,370,675,370.2z"/>
				<path class="st4" d="M675,368.8c4.1,1.9,8.1,3.8,12.2,5.5c0.3,0.1,0.6-0.3,0.3-0.5c-4.1-1.9-8.2-3.6-12.3-5.4
					C675,368.4,674.8,368.7,675,368.8z"/>
				<path class="st4" d="M676.5,367.1c4.5,2.4,9,4.7,13.6,6.8c0.3,0.2,0.7-0.3,0.3-0.5c-4.5-2.4-9.1-4.6-13.7-6.8
					C676.5,366.5,676.2,367,676.5,367.1z"/>
				<path class="st4" d="M678.4,365.8c4,2.3,8.2,4.5,12.4,6.4c0.3,0.1,0.6-0.3,0.3-0.5c-4-2.3-8.3-4.3-12.5-6.3
					C678.4,365.4,678.2,365.7,678.4,365.8z"/>
				<path class="st4" d="M681.6,364.9c-0.2-0.1-0.4,0.2-0.2,0.3c2.7,1.1,5.4,2.2,8.1,3.1c0.3,0.1,0.5-0.4,0.2-0.5
					C687.1,366.7,684.3,365.8,681.6,364.9z"/>
				<path class="st4" d="M683.1,363.1c1.6,1.1,3.2,2.1,4.8,3.2c0.4,0.2,0.8-0.4,0.4-0.6c-1.6-1-3.2-2.1-4.8-3.1
					C683.1,362.3,682.7,362.8,683.1,363.1z"/>
				<path class="st4" d="M671.4,383.6c1.5,0.8,3.1,1.6,4.7,2.2c0.3,0.1,0.7-0.3,0.3-0.5c-1.6-0.8-3.2-1.4-4.8-2.1
					C671.4,383.2,671.2,383.5,671.4,383.6z"/>
				<path class="st4" d="M670.7,380.6c2.3,1.4,4.9,2.6,7.4,3.7c0.3,0.1,0.6-0.3,0.3-0.4c-2.4-1.3-4.9-2.6-7.5-3.6
					C670.7,380.2,670.5,380.5,670.7,380.6z"/>
				<path class="st4" d="M671.8,378.8c2.2,1.4,4.5,2.7,6.9,3.9c0.3,0.2,0.7-0.3,0.3-0.5c-2.3-1.3-4.6-2.6-6.9-3.8
					C671.8,378.2,671.5,378.6,671.8,378.8z"/>
				<path class="st4" d="M671.2,376.7c2.5,1.4,5.1,2.7,7.8,3.9c0.3,0.1,0.7-0.4,0.3-0.5c-2.5-1.4-5.2-2.6-7.9-3.7
					C671.2,376.2,670.9,376.6,671.2,376.7z"/>
				<path class="st4" d="M672.8,376c2.1,1,4.2,2,6.3,2.8c0.4,0.2,0.9-0.5,0.4-0.7c-2.1-1-4.2-1.9-6.4-2.7
					C672.8,375.2,672.4,375.8,672.8,376z"/>
				<path class="st4" d="M674.3,373.6c-0.3-0.1-0.7,0.4-0.3,0.5c1.3,0.5,2.7,1,4,1.5c0.4,0.2,0.9-0.5,0.4-0.7
					C677,374.5,675.6,374,674.3,373.6z"/>
				<path class="st4" d="M693.8,400.2c0.8,0.7,1.7,1.4,2.5,1.9c0.2,0.1,0.5-0.2,0.3-0.4c-0.8-0.7-1.7-1.2-2.6-1.8
					C693.9,399.8,693.7,400,693.8,400.2z"/>
				<path class="st4" d="M692.6,401.2c-0.2-0.1-0.4,0.3-0.1,0.4c1.5,0.4,3.1,0.9,4.6,1.3c0.3,0.1,0.5-0.4,0.2-0.5
					C695.7,401.9,694.2,401.5,692.6,401.2z"/>
				<path class="st4" d="M694.1,397.5c-0.3-0.1-0.6,0.4-0.3,0.5c1.8,0.7,3.5,1.4,5.3,2c0.3,0.1,0.6-0.4,0.3-0.6
					C697.6,398.7,695.8,398.1,694.1,397.5z"/>
				<path class="st4" d="M694.7,395.4c1.5,0.8,3.1,1.6,4.6,2.3c0.3,0.2,0.7-0.4,0.3-0.5c-1.6-0.7-3.2-1.4-4.8-2.1
					C694.7,395,694.5,395.3,694.7,395.4z"/>
				<path class="st4" d="M694.7,392.8c2.1,1.1,4.1,2.2,6.2,3.2c0.4,0.2,0.8-0.4,0.4-0.6c-2-1.1-4.1-2.1-6.2-3.2
					C694.7,392.1,694.4,392.6,694.7,392.8z"/>
				<path class="st4" d="M695.5,390.8c2,1.1,4.1,2.3,6.2,3.2c0.4,0.2,0.8-0.4,0.4-0.6c-1.9-1.2-4.1-2.2-6.2-3.2
					C695.5,390.1,695.1,390.6,695.5,390.8z"/>
				<path class="st4" d="M695.4,388.4c2.2,1.3,4.6,2.5,7,3.6c0.3,0.1,0.7-0.3,0.3-0.5c-2.3-1.3-4.7-2.4-7.1-3.4
					C695.4,387.9,695.2,388.2,695.4,388.4z"/>
				<path class="st4" d="M696.3,386c2.3,1.2,4.6,2.5,7,3.5c0.4,0.2,0.7-0.4,0.4-0.6c-2.3-1.3-4.7-2.4-7-3.5
					C696.3,385.3,695.9,385.8,696.3,386z"/>
				<path class="st4" d="M696.3,384.6c2.6,1.2,5.3,2.4,7.9,3.4c0.4,0.1,0.8-0.4,0.4-0.6c-2.6-1.3-5.3-2.3-8-3.4
					C696.3,384,696,384.5,696.3,384.6z"/>
				<path class="st4" d="M697.5,381.7c-0.2-0.1-0.4,0.3-0.2,0.4c1.9,0.9,4.1,1.7,6.1,2.3c0.3,0.1,0.6-0.4,0.3-0.5
					C701.7,383.1,699.5,382.3,697.5,381.7z"/>
				<path class="st4" d="M696.6,378.8c1.6,0.8,3.1,1.5,4.7,2.2c0.4,0.2,0.9-0.5,0.4-0.7c-1.6-0.7-3.2-1.4-4.8-2.1
					C696.6,378.1,696.3,378.6,696.6,378.8z"/>
				<path class="st4" d="M695.1,374.4c-0.2-0.1-0.5,0.3-0.2,0.4c2.7,1,5.4,2.1,8.2,3c0.2,0.1,0.5-0.3,0.2-0.4
					C700.6,376.3,697.8,375.4,695.1,374.4z"/>
				<path class="st4" d="M694.1,370.8c2.4,1.3,4.9,2.6,7.4,3.7c0.3,0.1,0.7-0.3,0.3-0.5c-2.4-1.3-5-2.4-7.5-3.6
					C694.1,370.3,693.8,370.7,694.1,370.8z"/>
				<path class="st4" d="M693.5,368.5c2.4,1.2,4.9,2.6,7.4,3.6c0.3,0.1,0.7-0.3,0.3-0.5c-2.4-1.4-4.9-2.5-7.4-3.7
					C693.5,367.7,693.1,368.3,693.5,368.5z"/>
				<path class="st4" d="M693.5,366.4c-0.3-0.1-0.7,0.3-0.3,0.5c1.2,0.5,2.4,1,3.6,1.4c0.4,0.1,0.8-0.5,0.4-0.6
					C696,367.2,694.7,366.8,693.5,366.4z"/>
				<path class="st4" d="M724.5,330.4c0.8,0.4,1.5,0.9,2.3,1.3c0.2,0.1,0.4-0.2,0.2-0.3c-0.8-0.4-1.5-0.9-2.3-1.3
					C724.6,330,724.3,330.3,724.5,330.4z"/>
				<path class="st4" d="M722.2,326.5c-0.3-0.2-0.7-0.4-1-0.6c-0.1-0.1-0.2,0-0.3,0.1c-2.9-0.9-6.2-0.6-9.1,1.4
					c-0.2,0.1-0.1,0.5,0.2,0.4c6.4-2.8,13.4-0.2,15.4,6.7c0.2,0.7,1.3,0.3,1.2-0.4c-0.5-1.9-1.5-3.6-2.7-5c1.8,1.1,3.5,2.1,5.3,3.2
					c0.2,0.1,0.5-0.2,0.2-0.4c-2.4-1.4-4.8-2.8-7.1-4.2C723.6,327.3,722.9,326.9,722.2,326.5z"/>
				<path class="st4" d="M729.7,323.7c2.7,2.6,5.4,5.2,8.2,7.7c0.3,0.3,0.8-0.2,0.5-0.5c-2.7-2.6-5.5-5.1-8.3-7.6
					C729.8,323,729.4,323.4,729.7,323.7z"/>
				<path class="st4" d="M728,318.5c3.1,2.6,6.3,5.2,9.5,7.8c0.3,0.2,0.8-0.2,0.5-0.5c-3.2-2.6-6.4-5.2-9.6-7.7
					C728.2,317.9,727.7,318.3,728,318.5z"/>
				<path class="st4" d="M725.6,315c3.4,2.6,7,5.2,10.6,7.6c0.3,0.2,0.7-0.3,0.4-0.5c-3.4-2.6-7.1-5.1-10.7-7.5
					C725.7,314.5,725.4,314.8,725.6,315z"/>
				<path class="st4" d="M723.3,312.5c5.1,3.5,10.4,6.6,15.7,9.8c0.4,0.2,0.8-0.4,0.4-0.7c-5.2-3.2-10.5-6.5-15.9-9.4
					C723.4,312.1,723.2,312.3,723.3,312.5z"/>
				<path class="st4" d="M728.4,312.6c3.2,2.7,6.5,5.4,9.9,8c0.3,0.3,0.9-0.2,0.5-0.5c-3.3-2.7-6.6-5.3-10.1-7.8
					C728.5,312.1,728.1,312.4,728.4,312.6z"/>
				<path class="st4" d="M588.3,454.6c-4.7,0.7-8.1,5.1-8,9.8c0,0.2,0.4,0.2,0.4,0c0.2-4.6,3.4-8.1,7.7-9.2
					C588.7,455,588.7,454.5,588.3,454.6z"/>
				<path class="st4" d="M587.5,455.7c-1.8,2.8-3.4,5.7-5.1,8.5c-0.1,0.2,0.2,0.3,0.3,0.2c1.8-2.8,3.5-5.6,5.2-8.5
					C588.1,455.7,587.6,455.5,587.5,455.7z"/>
				<path class="st4" d="M581,452.7c-1.9,2.7-3.5,5.6-5.2,8.5c-0.2,0.3,0.3,0.5,0.4,0.2c1.8-2.8,3.7-5.5,5.3-8.4
					C581.7,452.6,581.2,452.4,581,452.7z"/>
				<path class="st4" d="M578.1,452.1c-2.2,2.4-4.2,5-6.1,7.5c-0.1,0.2,0.2,0.4,0.3,0.2c2.2-2.4,4.3-4.8,6.3-7.4
					C578.8,452.1,578.3,451.9,578.1,452.1z"/>
				<path class="st4" d="M575.8,451.3c-2,1.9-3.9,4.1-5.7,6.2c-0.2,0.2,0.1,0.4,0.3,0.2c2-2,4-4,5.8-6.1
					C576.4,451.4,576.1,451.1,575.8,451.3z"/>
				<path class="st4" d="M575.1,449.7c-2.2,2.6-4.3,5.4-6.4,8.1c-0.2,0.2,0.2,0.4,0.3,0.2c2.2-2.6,4.5-5.2,6.6-8
					C575.9,449.8,575.4,449.5,575.1,449.7z"/>
				<path class="st4" d="M574.1,448.6c-2.2,2.4-4.1,5-6.1,7.5c-0.1,0.2,0.2,0.4,0.3,0.2c2.1-2.4,4.3-4.9,6.3-7.4
					C574.7,448.7,574.3,448.4,574.1,448.6z"/>
				<path class="st4" d="M573.5,447.1c-1.6,1.4-3.2,2.8-4.7,4.2c0.5-0.6,0.9-1.1,1.5-1.6c0.3-0.3-0.1-0.6-0.4-0.4
					c-1.3,1.1-2.5,2.2-3.8,3.3c-0.2,0.2,0.1,0.4,0.2,0.2c0.2-0.1,0.6-0.4,1.1-0.8c-0.6,0.9-1.1,2-1.5,3c-1.3,3.2-1.6,6.5-0.9,9.8
					c0.1,0.3,0.6,0.2,0.6-0.2c-0.9-4.7,0.1-9.4,2.9-13.1c0,0.1,0.2,0.2,0.3,0.1c1.7-1.4,3.4-2.8,5.1-4.3
					C574.2,447.2,573.8,446.9,573.5,447.1z"/>
				<path class="st4" d="M568.6,455.9c-0.4,1.4-0.8,2.8-1.1,4.1c-0.3-1.4-0.6-2.9-1-4.3c-0.1-0.4-0.7-0.2-0.6,0.2
					c0.4,1.9,0.8,3.8,1.2,5.6c-0.4,1.5-0.8,3-1.1,4.5c-0.1,0.5,0.6,0.5,0.7,0.1c0.3-1,0.5-1.9,0.8-2.9c0.6,2.6,1.1,5.2,1.7,7.7
					c0.1,0.5,0.9,0.2,0.8-0.2c-0.7-3-1.4-6.1-2.1-9.1c0.5-1.9,0.9-3.8,1.3-5.6C569.3,455.6,568.7,455.5,568.6,455.9z"/>
				<path class="st4" d="M664.1,432.9c-5.9,1-11.9,2.1-17.8,3.2c-0.2,0-0.2,0.3,0,0.3c5.9-1,11.9-2,17.8-3.1
					C664.3,433.2,664.3,432.8,664.1,432.9z"/>
				<path class="st4" d="M669.5,429.2c-6.7,0.7-13.4,1.6-20.2,2.4c-0.2,0-0.3,0.4,0,0.3c6.7-0.7,13.4-1.5,20.2-2.3
					C669.7,429.6,669.8,429.1,669.5,429.2z"/>
				<path class="st4" d="M672.9,423.6c-6.9,1-13.8,2.2-20.6,3.4c-0.2,0-0.3,0.4,0,0.4c6.9-1.1,13.8-2.1,20.7-3.3
					C673.2,424,673.2,423.6,672.9,423.6z"/>
				<path class="st4" d="M677.6,418.4c-6.1,1.3-12.1,2.9-18.2,4.4c-0.2,0.1-0.2,0.4,0.1,0.3c6.1-1.4,12.2-2.7,18.2-4.3
					C678,418.8,677.9,418.3,677.6,418.4z"/>
				<path class="st4" d="M680.5,413.8c-5.5,1.2-11,2.4-16.5,3.7c-0.2,0-0.2,0.4,0.1,0.3c5.5-1.2,11-2.3,16.5-3.6
					C680.9,414.1,680.8,413.7,680.5,413.8z"/>
				<path class="st4" d="M684.8,409.5c-5.9,0.9-11.9,1.9-17.8,3.1c-0.2,0-0.2,0.4,0,0.3c6-0.8,11.9-1.9,17.8-3
					C685.1,409.9,685.1,409.5,684.8,409.5z"/>
				<path class="st4" d="M690.5,402.7c-5.9,1.7-11.7,3.6-17.6,5.6c-0.2,0.1-0.2,0.4,0.1,0.3c5.9-1.7,11.8-3.5,17.6-5.5
					C690.8,403,690.8,402.6,690.5,402.7z"/>
				<path class="st4" d="M693.8,396.5c-5.7,1.6-11.3,3.2-17,4.8c-0.3,0.1-0.2,0.5,0.1,0.4c5.7-1.6,11.3-3.2,17-4.8
					C694.1,396.9,694,396.5,693.8,396.5z"/>
				<path class="st4" d="M693.2,391.1c-3.6,1-7.2,2-10.7,3c-0.2,0.1-0.2,0.4,0.1,0.3c3.6-1,7.2-2,10.7-3
					C693.5,391.4,693.4,391,693.2,391.1z"/>
				<path class="st4" d="M543.5,568.1c-0.5,0.2-0.5,0.9,0.1,0.9c0.8,0,1.6-0.2,2.4,0.1c0.5,0.2,1,1,0.6,1.6c-0.5,0.8-1.6-0.3-2-0.6
					c-0.4-0.4-0.8-0.7-1.4-0.8c-0.2-0.1-0.4,0.3-0.1,0.4c1.2,0.3,1.7,1.7,2.9,1.9c0.8,0.1,1.5-0.3,1.7-1
					C548.2,568.2,545.1,567.6,543.5,568.1z"/>
				<path class="st4" d="M542.1,564.7c-0.3,0.1-0.4,0.5-0.3,0.7c-0.1,0-0.2-0.1-0.3-0.1c-0.2-0.1-0.4,0.2-0.3,0.3
					c1.1,1.1,2.7,1.5,4.3,1.7c0.4,0,0.7-0.3,0.6-0.7C545.5,565.1,543.7,564.3,542.1,564.7z M542.2,565.6c1-0.1,1.8,0.2,2.4,0.8
					C543.8,566.3,543,566,542.2,565.6L542.2,565.6z"/>
				<path class="st4" d="M540.8,588.7c-2.5,0.9-4.8,1.2-7.4,1c-0.3,0-0.4,0.4-0.1,0.5c2.5,0.5,5.4,0.1,7.7-1
					C541.3,589,541.1,588.6,540.8,588.7z"/>
				<path class="st4" d="M537.7,585.2c-0.1,0.4-0.2,0.8-0.2,1.2c-1.7-0.2-3.4-0.4-5.1-0.5c-0.2,0-0.4,0.1-0.4,0.3
					c0.3,1.5,0.5,3.1,0.8,4.6c0,0.2,0.3,0.1,0.3-0.1c-0.1-1.4-0.3-2.8-0.5-4.3c1.7,0.2,3.5,0.4,5.2,0.5c0.3,0,0.4-0.4,0.1-0.5
					c0,0,0,0,0,0c0.1-0.4,0.2-0.8,0.2-1.2C538.2,585,537.8,585,537.7,585.2z"/>
				<path class="st4" d="M541.5,585.3c0,0.1,0,0.1,0,0.2c-1-0.1-2.1-0.1-3.1-0.2c-0.2,0-0.2,0.3-0.1,0.3c1,0.1,2.1,0.3,3.1,0.4
					c0,0.8,0,1.7,0.2,2.5c0,0.3,0.4,0.1,0.4-0.1c0.1-1,0.1-2.1,0.1-3.1C542.1,584.8,541.5,584.9,541.5,585.3z"/>
				<path class="st4" d="M563.9,576.5c-3.9,1.1-7.7,0.3-10.9-2.2c-0.2-0.2-0.6,0.2-0.4,0.4c3.2,2.7,7.3,3.7,11.4,2.5
					C564.5,577,564.3,576.3,563.9,576.5z"/>
				<path class="st4" d="M554.6,569.7c-2.1,0.3-3.2,2.2-2.9,4.2c0,0.2,0.3,0.1,0.3-0.1c-0.1-1,0.4-1.7,1.4-2.1
					c0.8-1.6,2-1.9,3.5-0.8c0.9,0.4,1.8,1,2.7,1.4c1.7,0.9,3.5,1.8,5.2,2.7c-0.1,0.3-0.3,0.6-0.4,0.9c-0.1,0.2,0.3,0.3,0.3,0.1
					c0.2-0.3,0.4-0.7,0.6-1c0.1-0.1,0.2-0.2,0.2-0.3c0.1-0.1,0.1-0.2,0.2-0.3c0.2-0.3-0.3-0.5-0.5-0.2c0,0.1-0.1,0.1-0.1,0.2
					c-2-1.1-4-2.1-6-3.2C557.7,570.6,556.3,569.4,554.6,569.7z"/>
				<path class="st4" d="M619.2,567.2c-1.1,0.8-2,2.1-2.9,3.2c-1.1,1.3-2.2,2.6-3.2,3.9c-0.2,0.2-0.1,0.5,0.1,0.6
					c1,0.5,2,1.1,3.1,1.7c0.5,0.3,1.1-0.5,0.5-0.8c-0.9-0.5-1.8-0.9-2.7-1.4c1.1-1.3,2.2-2.6,3.3-4c0.5-0.6,1-1.3,1.5-1.8
					c1.9-1.6,3.1-1,4.6,0.1c1.6,1.1,1.1,2.7-0.2,4c-0.6,0.5-1.4,1-2.1,1.4c-1.6,1.1-3.2,2.2-4.8,3.3c-0.3,0.2-0.1,0.8,0.3,0.5
					c2.7-1.7,6-3.3,8.4-5.5c1.7-1.5,1-3.1-0.6-4.3C623.1,566.8,621.1,565.9,619.2,567.2z"/>
				<path class="st4" d="M607.4,607.9c0-0.1,0-0.2,0-0.2c0-0.2-0.4-0.1-0.4,0.1c0,0.1,0,0.2,0,0.3c-0.3,0.2-0.3,0.6,0,0.7
					c0.1,0.8,0.3,1.6,0.9,2.1c0.6,0.5,1.6,0.7,2.3,0.3c0.8-0.5,0.9-1.5,0.3-2.3C609.8,607.8,608.5,607.8,607.4,607.9z M609.5,609
					c0.6,0.5,0.7,1.6-0.3,1.6c-1.1,0-1.5-1-1.7-2C608.2,608.6,608.9,608.5,609.5,609z"/>
				<path class="st4" d="M534.8,677.9c1.9,3,5.6,4.3,9,3.9c0.4,0,0.5-0.7,0-0.6c-3.5,0.4-6.4-1-8.8-3.5
					C534.9,677.5,534.7,677.7,534.8,677.9z"/>
				<path class="st4" d="M551.5,678c-1.5,2.2-3.8,3.6-6.4,3.7c-0.2,0-0.3,0.3,0,0.3c2.9,0,5.6-1.3,7.2-3.7
					C552.6,677.9,551.8,677.6,551.5,678z"/>
				<path class="st4" d="M531.6,735c-0.7,7.1,6.2,12.2,12.8,9.9c0.2-0.1,0.2-0.4-0.1-0.4c-6.6,1.9-12.3-2.9-12.1-9.6
					C532.3,734.5,531.7,734.6,531.6,735z"/>
				<path class="st4" d="M524,707.8c-1.1,2.5-0.9,5.6,0.8,7.9c1.3,1.8,3.8,3.6,6.1,3.2c0.1,0,0.2-0.2,0.1-0.3
					c-0.8-0.4-1.7-0.5-2.5-0.9c-1.2-0.6-2.3-1.5-3.1-2.6c-1.4-2.1-1.5-4.7-0.7-7.1C524.8,707.5,524.2,707.5,524,707.8z"/>
				<path class="st4" d="M485,738.3c3.5,4,5.4,9.3,6.1,14.5c0,0.2,0.4,0.1,0.4-0.1c-0.6-5.6-2.8-10.2-5.9-14.8
					C485.3,737.5,484.6,738,485,738.3z"/>
				<path class="st4" d="M501.9,769.3c4.2,4.4,6.2,10,6.4,16c0,0.3,0.4,0.2,0.4,0c0.3-6.2-2-12.1-6.2-16.7
					C502.2,768.3,501.5,768.9,501.9,769.3z"/>
				<path class="st4" d="M426.6,752.8c-4.2,2-4.9,9-4.4,13c0.5,4.9,3.1,9.7,7.2,12.4c0.2,0.1,0.4-0.2,0.3-0.3
					c-2.8-3-5.2-6.1-6.1-10.1c-1-4.3-0.6-11.5,3.6-14.1C427.7,753.3,427.2,752.4,426.6,752.8z"/>
				<path class="st4" d="M601.3,670.9c-4.3,6.8-13.1,7.6-20.4,6.6c-0.3,0-0.5,0.4-0.2,0.5c7,1.2,17.7,0.7,21.3-6.6
					C602.4,670.7,601.6,670.4,601.3,670.9z"/>
				<path class="st4" d="M610.7,493.1c-4.2,2.7-8.6,2.9-13.3,1.5c-0.2-0.1-0.4,0.3-0.2,0.4c4.3,2.5,10,1.8,14-1
					C611.8,493.5,611.4,492.7,610.7,493.1z"/>
				<path class="st4" d="M573.4,488.7c-6.3,3.4-13.1,2.6-17.6-3.2c-0.1-0.2-0.4,0-0.3,0.2c3.9,6.1,12.4,8.4,18.5,3.9
					C574.4,489.1,574,488.3,573.4,488.7z"/>
				<path class="st4" d="M587.2,427.4c7.4,3.6,14.1,8.9,17.7,16.4c0.3,0.6,1.5,0,1.1-0.6c-4.6-7.1-10.5-13.1-18.6-16.1
					C587.3,427.1,587,427.3,587.2,427.4z"/>
				<path class="st4" d="M609.5,449.3c1.2,1.9,2.7,3.6,4.1,5.3c1.6,1.9,3.1,4,4.9,5.8c0.4,0.4,1.2-0.2,0.9-0.7
					c-1.4-1.8-2.9-3.4-4.4-5.1c-1.7-1.9-3.2-3.9-5.1-5.6C609.7,448.9,609.4,449.1,609.5,449.3z"/>
				<path class="st4" d="M635.1,385.9c-0.6,0-0.9,1-0.2,1.1c7.1,1.2,11.7,4.4,14.6,11.1c0.1,0.2,0.4,0,0.4-0.2
					C648.7,391.5,641.7,385.6,635.1,385.9z"/>
				<path class="st4" d="M656.9,408.2c-0.8-0.1-1.3,1.1-0.4,1.3c8.2,1.4,13.4,6,18.5,12.3c0.1,0.1,0.4,0,0.3-0.1
					C672.3,414.4,664.3,409.6,656.9,408.2z"/>
				<path class="st4" d="M673.5,338.5c-0.6,0.1-1,1.1-0.2,1.2c8,0.8,14.3,3.1,19.7,9.3c0.1,0.1,0.4-0.1,0.3-0.2
					C689.1,342.5,681.1,337.8,673.5,338.5z"/>
				<path class="st4" d="M703.9,358.2c-0.7,0-1,1.1-0.2,1.3c5.1,0.9,9.6,2.4,13.4,6.2c3.2,3.1,5.1,7.1,6.2,11.4
					c0.1,0.2,0.4,0.1,0.3-0.1C722.5,367.2,713.9,358.6,703.9,358.2z"/>
			</g>
			<path class="st4" d="M524.7,606.3c-15.8,5.9-31.3,12.5-47,18.7c-0.4,0.2-0.3,0.8,0.1,0.6c15.7-6.1,31.6-11.7,47.1-18.1
				C525.7,607.2,525.5,606,524.7,606.3z"/>
			<path class="st4" d="M523.1,608.4c-6.3,3.4-12.6,6.9-18.8,10.3c-3.9,2.1-21.2,14.1-24.8,8.1c-0.2-0.3-0.7-0.1-0.7,0.2
				c0.2,6,7.5,2.9,10.5,1.3c11.5-6.2,22.9-12.5,34.2-18.9C524.2,609,523.7,608.1,523.1,608.4z"/>
			<path class="st4" d="M465.2,564.4c0,0,0,0.1,0,0.1c-0.2,0.1-0.3,0.5,0.1,0.6c14.8,4.3,29.5,8.8,44.3,12.8c1.6,0.7,3.2,1.4,4.8,2
				c0.4,0.2,0.8-0.1,0.9-0.5c0.2,0.1,0.4,0.1,0.6,0.2c0.5,0.1,0.9-0.7,0.3-0.9c-1.8-0.5-3.5-1-5.3-1.6c-10.3-4.4-20.7-8.6-31.1-13
				C475.1,562.2,468.1,558,465.2,564.4z M492.1,570.5c3,1.3,6,2.6,9,3.9c-11.8-3.3-23.6-6.5-35.4-9.8
				C469.1,558.1,487.4,568.5,492.1,570.5z"/>
			<path class="st4" d="M511.1,500.8c-2.4,1.4-4.8,2.9-7.2,4.5c0,0-0.1,0.1-0.1,0.1c-0.5-0.6-1-1.3-1.5-1.9c-0.3-0.3-0.9,0-0.7,0.4
				c12.3,16.7,24.7,33.4,37.4,49.8c0.2,0.2,0.5,0.2,0.6,0c0.2,0.3,0.4,0.6,0.5,1c0.2,0.4,0.9,0,0.7-0.4
				c-9.3-17.9-19.3-35.5-28.9-53.2C511.9,500.7,511.4,500.6,511.1,500.8z M512.1,504c1.4,0.8,3,5.3,3.7,6.6
				c2.7,4.8,5.3,9.6,7.9,14.3c4.9,8.9,9.8,17.8,14.9,26.6c-11.1-15.2-22.4-30.2-33.9-45.1C507.2,504.9,509.2,502.4,512.1,504z"/>
			<path class="st4" d="M614.4,621.6c11.4,12.3,23.2,24.4,34.2,37.2c0.3,0.3,0.8,0.2,1-0.1c1.6-1.4,3.1-2.8,4.7-4.2
				c0.7-0.7-0.3-1.4-1-0.9c-2,1.7-2.6,3.3-5.5,2.4c-1.5-0.5-3.4-3.4-4.4-4.5c-3.2-3.4-6.4-6.7-9.6-10.1c-4.7-5-9.4-10-14.2-15
				c11.1,9.1,22.2,18.5,34.1,26.6c0.3,0.2,0.8-0.2,0.5-0.5c-11.6-10.6-24.6-19.9-37.1-29.6c-0.2-0.2-0.5-0.1-0.7,0
				c-0.6-0.6-1.1-1.2-1.7-1.8C614.6,620.9,614.1,621.3,614.4,621.6z"/>
			<path class="st4" d="M663.9,610c-9.1-1.4-18.1-3-27.2-4.3c-4-1.2-8-2.4-12-3.5c-0.4-0.1-0.7,0.5-0.2,0.7c2.4,0.7,4.7,1.4,7.1,2.2
				c-1-0.1-2.1-0.3-3.1-0.4c-0.8-0.1-1.3,1.1-0.4,1.3c4.4,0.8,8.9,1.5,13.3,2.1l17.7,5.4c3.1,0.9,13.8,6.6,16.2,1.9
				C678,609.9,666.1,610.4,663.9,610z M670.1,615.5c-2.1,0.6-8.6-2.5-10.7-3.1c-3.7-1.1-7.4-2.2-11.1-3.3c-0.3-0.1-0.5-0.2-0.8-0.2
				c1.1,0.2,2.3,0.3,3.4,0.5c4.2,0.6,8.4,1.3,12.7,1.9c1.5,0.2,3.6,0.2,5.1,0.8c0.8,0.1,1.7,0.3,2.5,0.4
				C672,615.2,671.7,616.2,670.1,615.5z"/>
			<path class="st4" d="M662.5,560.1c-12,5.9-24,11.7-35.9,17.8c-1.1,0.5-0.2,1.9,0.8,1.4c7.5-3.6,15-7.4,22.4-11.1
				c3.7-1.9,7.5-3.7,11.2-5.6c2.6-1.3,5.4-2.9,8.1-3.9c1.3-0.3,2.5-0.6,3.8-1c5.1,1.4,6.2,2.5,3.5,3.4c-2.2,2.3-8.5,3.7-11.4,5
				c-3.8,1.7-7.6,3.3-11.4,5c-8.7,3.8-17.4,7.7-26.2,11.6c-0.4,0.2-0.3,0.8,0.1,0.6c17.6-7.5,35.1-15.3,52.9-22.4
				c0.4-0.2,0.9-0.7,0.5-1.1C675.9,553.3,668.4,557.2,662.5,560.1z"/>
		</g>
	</g>
</g>
</svg>
